<svg xmlns="http://www.w3.org/2000/svg" xmlns:xlink="http://www.w3.org/1999/xlink" contentStyleType="text/css" data-diagram-type="CLASS" height="873px" preserveAspectRatio="none" style="width:804px;height:873px;background:#FFFFFF;" version="1.1" viewBox="0 0 804 873" width="804px" zoomAndPan="magnify"><?plantuml $version$?><defs/><g><g class="title" data-source-line="1"><text fill="#000000" font-family="sans-serif" font-size="14" font-weight="700" lengthAdjust="spacing" textLength="342.9007" x="227.0497" y="24.9659">llm &#8212; value objects, ports, and provider adapters</text></g><!--cluster llm (domain)--><g class="cluster" data-qualified-name="llm .domain." data-source-line="13" id="ent0001"><rect fill="none" height="532.41" rx="2.5" ry="2.5" style="stroke:#000000;stroke-width:1.5;" width="783" x="7" y="235.0679"/><text fill="#000000" font-family="sans-serif" font-size="14" font-weight="700" lengthAdjust="spacing" textLength="88.0457" x="354.4772" y="252.0339">llm (domain)</text></g><!--cluster llm--><g class="cluster" data-qualified-name="llm" data-source-line="45" id="ent0014"><rect fill="none" height="164" rx="2.5" ry="2.5" style="stroke:#000000;stroke-width:1.5;" width="683" x="85" y="47.0679"/><text fill="#000000" font-family="sans-serif" font-size="14" font-weight="700" lengthAdjust="spacing" textLength="21.9939" x="415.503" y="64.0339">llm</text></g><!--cluster providers (adapters, outer ring)--><g class="cluster" data-qualified-name="llm.providers .adapters. outer ring." data-source-line="44" id="ent0012"><rect fill="none" height="94" rx="2.5" ry="2.5" style="stroke:#000000;stroke-width:1.5;" width="635" x="109" y="93.0679"/><text fill="#000000" font-family="sans-serif" font-size="14" font-weight="700" lengthAdjust="spacing" textLength="220.0512" x="316.4744" y="110.0339">providers (adapters, outer ring)</text></g><!--class Role--><g class="entity" data-qualified-name="llm .domain..Role" data-source-line="14" id="ent0002"><rect fill="#F1F1F1" height="40" rx="2.5" ry="2.5" style="stroke:#181818;stroke-width:0.5;" width="60.6859" x="154.66" y="711.4779"/><ellipse cx="169.66" cy="727.4779" fill="#EB937F" rx="11" ry="11" style="stroke:#181818;stroke-width:1;"/><path d="M166.0194,733.9779 L166.0194,721.8373 L173.6756,721.8373 L173.6756,723.9623 L168.3944,723.9623 L168.3944,726.6185 L173.41,726.6185 L173.41,728.7435 L168.3944,728.7435 L168.3944,731.8529 L173.6756,731.8529 L173.6756,733.9779 L166.0194,733.9779 Z " fill="#000000"/><text fill="#000000" font-family="sans-serif" font-size="14" lengthAdjust="spacing" textLength="28.6859" x="183.66" y="732.9099">Role</text><line style="stroke:#181818;stroke-width:0.5;" x1="155.66" x2="214.3459" y1="743.4779" y2="743.4779"/></g><!--class Message--><g class="entity" data-qualified-name="llm .domain..Message" data-source-line="15" id="ent0003"><rect fill="#F1F1F1" height="67.0679" rx="2.5" ry="2.5" style="stroke:#181818;stroke-width:0.5;" width="256.4951" x="56.75" y="574.8779"/><ellipse cx="151.5647" cy="590.8779" fill="#ADD1B2" rx="11" ry="11" style="stroke:#181818;stroke-width:1;"/><path d="M151.0334,597.7998 Q149.2834,597.7998 148.1428,597.0654 Q147.0178,596.3154 146.4553,594.9717 Q145.9084,593.6123 145.9084,591.8154 Q145.9084,589.7842 146.5647,588.331 Q147.2209,586.8779 148.5022,586.0967 Q149.7834,585.3154 151.6584,585.3154 Q152.549,585.3154 153.2209,585.5029 Q153.8928,585.6748 154.5803,586.0185 L153.7678,588.0342 Q153.1428,587.7217 152.5959,587.5967 Q152.0647,587.4717 151.5803,587.4717 Q150.4084,587.4717 149.7053,588.0029 Q149.0022,588.5342 148.7053,589.4873 Q148.4084,590.4404 148.4084,591.706 Q148.4084,593.7217 149.1272,594.6904 Q149.8459,595.6435 151.4397,595.6435 Q152.0334,595.6435 152.6584,595.4873 Q153.2834,595.331 154.1115,594.956 L154.1115,597.1748 Q153.3772,597.4873 152.5803,597.6435 Q151.799,597.7998 151.0334,597.7998 Z " fill="#000000"/><text fill="#000000" font-family="sans-serif" font-size="14" lengthAdjust="spacing" textLength="58.3658" x="172.0647" y="596.3099">Message</text><line style="stroke:#181818;stroke-width:0.5;" x1="57.75" x2="312.2451" y1="606.8779" y2="606.8779"/><line style="stroke:#181818;stroke-width:0.5;" x1="57.75" x2="312.2451" y1="614.8779" y2="614.8779"/><g data-visibility-modifier="PUBLIC_METHOD"><ellipse cx="67.75" cy="629.9119" fill="#84BE84" rx="3" ry="3" style="stroke:#038048;stroke-width:1;"/></g><text fill="#000000" font-family="sans-serif" font-size="14" lengthAdjust="spacing" textLength="230.4951" x="76.75" y="633.8439">system() / user() / assistant() / tool()</text></g><!--class ToolCall--><g class="entity" data-qualified-name="llm .domain..ToolCall" data-source-line="18" id="ent0004"><rect fill="#F1F1F1" height="40" rx="2.5" ry="2.5" style="stroke:#181818;stroke-width:0.5;" width="84.2618" x="286.87" y="711.4779"/><ellipse cx="301.87" cy="727.4779" fill="#ADD1B2" rx="11" ry="11" style="stroke:#181818;stroke-width:1;"/><path d="M301.3388,734.3998 Q299.5888,734.3998 298.4481,733.6654 Q297.3231,732.9154 296.7606,731.5717 Q296.2138,730.2123 296.2138,728.4154 Q296.2138,726.3842 296.87,724.931 Q297.5263,723.4779 298.8075,722.6967 Q300.0888,721.9154 301.9638,721.9154 Q302.8544,721.9154 303.5263,722.1029 Q304.1981,722.2748 304.8856,722.6185 L304.0731,724.6342 Q303.4481,724.3217 302.9013,724.1967 Q302.37,724.0717 301.8856,724.0717 Q300.7138,724.0717 300.0106,724.6029 Q299.3075,725.1342 299.0106,726.0873 Q298.7138,727.0404 298.7138,728.306 Q298.7138,730.3217 299.4325,731.2904 Q300.1513,732.2435 301.745,732.2435 Q302.3388,732.2435 302.9638,732.0873 Q303.5888,731.931 304.4169,731.556 L304.4169,733.7748 Q303.6825,734.0873 302.8856,734.2435 Q302.1044,734.3998 301.3388,734.3998 Z " fill="#000000"/><text fill="#000000" font-family="sans-serif" font-size="14" lengthAdjust="spacing" textLength="52.2618" x="315.87" y="732.9099">ToolCall</text><line style="stroke:#181818;stroke-width:0.5;" x1="287.87" x2="370.1318" y1="743.4779" y2="743.4779"/></g><!--class TokenUsage--><g class="entity" data-qualified-name="llm .domain..TokenUsage" data-source-line="19" id="ent0005"><rect fill="#F1F1F1" height="86.1358" rx="2.5" ry="2.5" style="stroke:#181818;stroke-width:0.5;" width="209.1613" x="492.42" y="565.3379"/><ellipse cx="551.9618" cy="581.3379" fill="#ADD1B2" rx="11" ry="11" style="stroke:#181818;stroke-width:1;"/><path d="M551.4306,588.2598 Q549.6806,588.2598 548.5399,587.5254 Q547.4149,586.7754 546.8524,585.4317 Q546.3056,584.0723 546.3056,582.2754 Q546.3056,580.2442 546.9618,578.791 Q547.6181,577.3379 548.8993,576.5567 Q550.1806,575.7754 552.0556,575.7754 Q552.9462,575.7754 553.6181,575.9629 Q554.2899,576.1348 554.9774,576.4785 L554.1649,578.4942 Q553.5399,578.1817 552.9931,578.0567 Q552.4618,577.9317 551.9774,577.9317 Q550.8056,577.9317 550.1024,578.4629 Q549.3993,578.9942 549.1024,579.9473 Q548.8056,580.9004 548.8056,582.166 Q548.8056,584.1817 549.5243,585.1504 Q550.2431,586.1035 551.8368,586.1035 Q552.4306,586.1035 553.0556,585.9473 Q553.6806,585.791 554.5087,585.416 L554.5087,587.6348 Q553.7743,587.9473 552.9774,588.1035 Q552.1962,588.2598 551.4306,588.2598 Z " fill="#000000"/><text fill="#000000" font-family="sans-serif" font-size="14" lengthAdjust="spacing" textLength="81.5777" x="572.4618" y="586.7699">TokenUsage</text><line style="stroke:#181818;stroke-width:0.5;" x1="493.42" x2="700.5813" y1="597.3379" y2="597.3379"/><line style="stroke:#181818;stroke-width:0.5;" x1="493.42" x2="700.5813" y1="605.3379" y2="605.3379"/><g data-visibility-modifier="PUBLIC_METHOD"><ellipse cx="503.42" cy="620.3719" fill="#84BE84" rx="3" ry="3" style="stroke:#038048;stroke-width:1;"/></g><text fill="#000000" font-family="sans-serif" font-size="14" lengthAdjust="spacing" textLength="63.1538" x="512.42" y="624.3039">total(): int</text><g data-visibility-modifier="PUBLIC_METHOD"><ellipse cx="503.42" cy="639.4398" fill="#84BE84" rx="3" ry="3" style="stroke:#038048;stroke-width:1;"/></g><text fill="#000000" font-family="sans-serif" font-size="14" lengthAdjust="spacing" textLength="183.1613" x="512.42" y="643.3718">__add__(other): TokenUsage</text></g><!--class Completion--><g class="entity" data-qualified-name="llm .domain..Completion" data-source-line="23" id="ent0006"><rect fill="#F1F1F1" height="67.0679" rx="2.5" ry="2.5" style="stroke:#181818;stroke-width:0.5;" width="166.7835" x="441.61" y="428.7379"/><ellipse cx="482.9214" cy="444.7379" fill="#ADD1B2" rx="11" ry="11" style="stroke:#181818;stroke-width:1;"/><path d="M482.3901,451.6598 Q480.6401,451.6598 479.4995,450.9254 Q478.3745,450.1754 477.812,448.8317 Q477.2651,447.4723 477.2651,445.6754 Q477.2651,443.6442 477.9214,442.191 Q478.5776,440.7379 479.8589,439.9567 Q481.1401,439.1754 483.0151,439.1754 Q483.9058,439.1754 484.5776,439.3629 Q485.2495,439.5348 485.937,439.8785 L485.1245,441.8942 Q484.4995,441.5817 483.9526,441.4567 Q483.4214,441.3317 482.937,441.3317 Q481.7651,441.3317 481.062,441.8629 Q480.3589,442.3942 480.062,443.3473 Q479.7651,444.3004 479.7651,445.566 Q479.7651,447.5817 480.4839,448.5504 Q481.2026,449.5035 482.7964,449.5035 Q483.3901,449.5035 484.0151,449.3473 Q484.6401,449.191 485.4683,448.816 L485.4683,451.0348 Q484.7339,451.3473 483.937,451.5035 Q483.1558,451.6598 482.3901,451.6598 Z " fill="#000000"/><text fill="#000000" font-family="sans-serif" font-size="14" lengthAdjust="spacing" textLength="76.3137" x="502.7684" y="450.1699">Completion</text><line style="stroke:#181818;stroke-width:0.5;" x1="442.61" x2="607.3935" y1="460.7379" y2="460.7379"/><line style="stroke:#181818;stroke-width:0.5;" x1="442.61" x2="607.3935" y1="468.7379" y2="468.7379"/><g data-visibility-modifier="PUBLIC_METHOD"><ellipse cx="452.61" cy="483.7719" fill="#84BE84" rx="3" ry="3" style="stroke:#038048;stroke-width:1;"/></g><text fill="#000000" font-family="sans-serif" font-size="14" lengthAdjust="spacing" textLength="140.7835" x="461.61" y="487.7039">requests_tools(): bool</text></g><!--class Conversation--><g class="entity" data-qualified-name="llm .domain..Conversation" data-source-line="26" id="ent0007"><rect fill="#F1F1F1" height="86.1358" rx="2.5" ry="2.5" style="stroke:#181818;stroke-width:0.5;" width="235.2852" x="23.36" y="419.2079"/><ellipse cx="93.1988" cy="435.2079" fill="#ADD1B2" rx="11" ry="11" style="stroke:#181818;stroke-width:1;"/><path d="M92.6675,442.1298 Q90.9175,442.1298 89.7769,441.3954 Q88.6519,440.6454 88.0894,439.3017 Q87.5425,437.9423 87.5425,436.1454 Q87.5425,434.1142 88.1988,432.661 Q88.855,431.2079 90.1363,430.4267 Q91.4175,429.6454 93.2925,429.6454 Q94.1831,429.6454 94.855,429.8329 Q95.5269,430.0048 96.2144,430.3485 L95.4019,432.3642 Q94.7769,432.0517 94.23,431.9267 Q93.6988,431.8017 93.2144,431.8017 Q92.0425,431.8017 91.3394,432.3329 Q90.6363,432.8642 90.3394,433.8173 Q90.0425,434.7704 90.0425,436.036 Q90.0425,438.0517 90.7613,439.0204 Q91.48,439.9735 93.0738,439.9735 Q93.6675,439.9735 94.2925,439.8173 Q94.9175,439.661 95.7456,439.286 L95.7456,441.5048 Q95.0113,441.8173 94.2144,441.9735 Q93.4331,442.1298 92.6675,442.1298 Z " fill="#000000"/><text fill="#000000" font-family="sans-serif" font-size="14" lengthAdjust="spacing" textLength="87.1077" x="113.6988" y="440.6399">Conversation</text><line style="stroke:#181818;stroke-width:0.5;" x1="24.36" x2="257.6452" y1="451.2079" y2="451.2079"/><line style="stroke:#181818;stroke-width:0.5;" x1="24.36" x2="257.6452" y1="459.2079" y2="459.2079"/><g data-visibility-modifier="PUBLIC_METHOD"><ellipse cx="34.36" cy="474.2419" fill="#84BE84" rx="3" ry="3" style="stroke:#038048;stroke-width:1;"/></g><text fill="#000000" font-family="sans-serif" font-size="14" lengthAdjust="spacing" textLength="209.2852" x="43.36" y="478.1739">with_message(m): Conversation</text><g data-visibility-modifier="PUBLIC_METHOD"><ellipse cx="34.36" cy="493.3098" fill="#84BE84" rx="3" ry="3" style="stroke:#038048;stroke-width:1;"/></g><text fill="#000000" font-family="sans-serif" font-size="14" lengthAdjust="spacing" textLength="145.2634" x="43.36" y="497.2418">messages(): Sequence</text></g><!--class ToolSchema--><g class="entity" data-qualified-name="llm .domain..ToolSchema" data-source-line="30" id="ent0008"><rect fill="#F1F1F1" height="56.1358" rx="2.5" ry="2.5" style="stroke:#181818;stroke-width:0.5;" width="112.2337" x="293.88" y="434.2079"/><ellipse cx="308.88" cy="458.2758" fill="#ADD1B2" rx="11" ry="11" style="stroke:#181818;stroke-width:1;"/><path d="M308.3488,465.1977 Q306.5988,465.1977 305.4581,464.4633 Q304.3331,463.7133 303.7706,462.3696 Q303.2238,461.0102 303.2238,459.2133 Q303.2238,457.1821 303.88,455.729 Q304.5363,454.2758 305.8175,453.4946 Q307.0988,452.7133 308.9738,452.7133 Q309.8644,452.7133 310.5363,452.9008 Q311.2081,453.0727 311.8956,453.4165 L311.0831,455.4321 Q310.4581,455.1196 309.9113,454.9946 Q309.38,454.8696 308.8956,454.8696 Q307.7238,454.8696 307.0206,455.4008 Q306.3175,455.9321 306.0206,456.8852 Q305.7238,457.8383 305.7238,459.104 Q305.7238,461.1196 306.4425,462.0883 Q307.1613,463.0415 308.755,463.0415 Q309.3488,463.0415 309.9738,462.8852 Q310.5988,462.729 311.4269,462.354 L311.4269,464.5727 Q310.6925,464.8852 309.8956,465.0415 Q309.1144,465.1977 308.3488,465.1977 Z " fill="#000000"/><text fill="#000000" font-family="sans-serif" font-size="14" lengthAdjust="spacing" textLength="80.2337" x="322.88" y="454.1739">ToolSchema</text><text fill="#000000" font-family="sans-serif" font-size="14" lengthAdjust="spacing" textLength="76.2297" x="324.882" y="473.2418">&#171;type alias&#187;</text><line style="stroke:#181818;stroke-width:0.5;" x1="294.88" x2="405.1137" y1="482.3438" y2="482.3438"/></g><!--class ChatModel--><g class="entity" data-qualified-name="llm .domain..ChatModel" data-source-line="32" id="ent0009"><rect fill="#F1F1F1" height="86.1358" rx="2.5" ry="2.5" style="stroke:#181818;stroke-width:0.5;" width="250.1111" x="224.94" y="273.0679"/><ellipse cx="312.1037" cy="289.0679" fill="#B4A7E5" rx="11" ry="11" style="stroke:#181818;stroke-width:1;"/><path d="M308.1349,295.5679 L308.1349,293.8648 L310.4943,293.5992 L310.4943,285.396 L308.1349,285.1304 L308.1349,283.4273 L315.2756,283.4273 L315.2756,285.1304 L312.8537,285.396 L312.8537,293.5992 L315.2756,293.8648 L315.2756,295.5679 L308.1349,295.5679 Z " fill="#000000"/><text fill="#000000" font-family="sans-serif" font-size="14" font-style="italic" lengthAdjust="spacing" textLength="67.2838" x="332.6037" y="294.4999">ChatModel</text><line style="stroke:#181818;stroke-width:0.5;" x1="225.94" x2="474.0511" y1="305.0679" y2="305.0679"/><line style="stroke:#181818;stroke-width:0.5;" x1="225.94" x2="474.0511" y1="313.0679" y2="313.0679"/><g data-visibility-modifier="PUBLIC_METHOD"><ellipse cx="235.94" cy="328.1019" fill="#84BE84" rx="3" ry="3" style="stroke:#038048;stroke-width:1;"/></g><text fill="#000000" font-family="sans-serif" font-size="14" lengthAdjust="spacing" textLength="92.8756" x="244.94" y="332.0339">identifier(): str</text><g data-visibility-modifier="PUBLIC_METHOD"><ellipse cx="235.94" cy="347.1698" fill="#84BE84" rx="3" ry="3" style="stroke:#038048;stroke-width:1;"/></g><text fill="#000000" font-family="sans-serif" font-size="14" lengthAdjust="spacing" textLength="224.1111" x="244.94" y="351.1018">complete(conv, tools): Completion</text></g><!--class EmbeddingModel--><g class="entity" data-qualified-name="llm .domain..EmbeddingModel" data-source-line="36" id="ent0010"><rect fill="#F1F1F1" height="86.1358" rx="2.5" ry="2.5" style="stroke:#181818;stroke-width:0.5;" width="196.0434" x="530.98" y="273.0679"/><ellipse cx="570.7794" cy="289.0679" fill="#B4A7E5" rx="11" ry="11" style="stroke:#181818;stroke-width:1;"/><path d="M566.8106,295.5679 L566.8106,293.8648 L569.17,293.5992 L569.17,285.396 L566.8106,285.1304 L566.8106,283.4273 L573.9513,283.4273 L573.9513,285.1304 L571.5294,285.396 L571.5294,293.5992 L573.9513,293.8648 L573.9513,295.5679 L566.8106,295.5679 Z " fill="#000000"/><text fill="#000000" font-family="sans-serif" font-size="14" font-style="italic" lengthAdjust="spacing" textLength="108.9336" x="590.2904" y="294.4999">EmbeddingModel</text><line style="stroke:#181818;stroke-width:0.5;" x1="531.98" x2="726.0234" y1="305.0679" y2="305.0679"/><line style="stroke:#181818;stroke-width:0.5;" x1="531.98" x2="726.0234" y1="313.0679" y2="313.0679"/><g data-visibility-modifier="PUBLIC_METHOD"><ellipse cx="541.98" cy="328.1019" fill="#84BE84" rx="3" ry="3" style="stroke:#038048;stroke-width:1;"/></g><text fill="#000000" font-family="sans-serif" font-size="14" lengthAdjust="spacing" textLength="92.8756" x="550.98" y="332.0339">identifier(): str</text><g data-visibility-modifier="PUBLIC_METHOD"><ellipse cx="541.98" cy="347.1698" fill="#84BE84" rx="3" ry="3" style="stroke:#038048;stroke-width:1;"/></g><text fill="#000000" font-family="sans-serif" font-size="14" lengthAdjust="spacing" textLength="170.0434" x="550.98" y="351.1018">embed(texts): list&lt;vector&gt;</text></g><!--class Pricing--><g class="entity" data-qualified-name="llm .domain..Pricing" data-source-line="41" id="ent0011"><rect fill="#F1F1F1" height="56.1358" rx="2.5" ry="2.5" style="stroke:#181818;stroke-width:0.5;" width="130.7276" x="643.64" y="434.2079"/><ellipse cx="658.64" cy="458.2758" fill="#ADD1B2" rx="11" ry="11" style="stroke:#181818;stroke-width:1;"/><path d="M658.1088,465.1977 Q656.3588,465.1977 655.2181,464.4633 Q654.0931,463.7133 653.5306,462.3696 Q652.9838,461.0102 652.9838,459.2133 Q652.9838,457.1821 653.64,455.729 Q654.2963,454.2758 655.5775,453.4946 Q656.8588,452.7133 658.7338,452.7133 Q659.6244,452.7133 660.2963,452.9008 Q660.9681,453.0727 661.6556,453.4165 L660.8431,455.4321 Q660.2181,455.1196 659.6713,454.9946 Q659.14,454.8696 658.6556,454.8696 Q657.4838,454.8696 656.7806,455.4008 Q656.0775,455.9321 655.7806,456.8852 Q655.4838,457.8383 655.4838,459.104 Q655.4838,461.1196 656.2025,462.0883 Q656.9213,463.0415 658.515,463.0415 Q659.1088,463.0415 659.7338,462.8852 Q660.3588,462.729 661.1869,462.354 L661.1869,464.5727 Q660.4525,464.8852 659.6556,465.0415 Q658.8744,465.1977 658.1088,465.1977 Z " fill="#000000"/><text fill="#000000" font-family="sans-serif" font-size="14" lengthAdjust="spacing" textLength="98.7276" x="672.64" y="454.1739">estimate_cost()</text><text fill="#000000" font-family="sans-serif" font-size="14" lengthAdjust="spacing" textLength="59.8498" x="692.0789" y="473.2418">&#171;pricing&#187;</text><line style="stroke:#181818;stroke-width:0.5;" x1="644.64" x2="773.3676" y1="482.3438" y2="482.3438"/></g><!--class OpenAIChatModel--><g class="entity" data-qualified-name="llm.providers .adapters. outer ring..OpenAIChatModel" data-source-line="45" id="ent0013"><rect fill="#F1F1F1" height="40" rx="2.5" ry="2.5" style="stroke:#181818;stroke-width:0.5;" width="153.4775" x="125.26" y="131.0679"/><ellipse cx="140.26" cy="147.0679" fill="#ADD1B2" rx="11" ry="11" style="stroke:#181818;stroke-width:1;"/><path d="M139.7288,153.9898 Q137.9788,153.9898 136.8381,153.2554 Q135.7131,152.5054 135.1506,151.1617 Q134.6038,149.8023 134.6038,148.0054 Q134.6038,145.9742 135.26,144.521 Q135.9163,143.0679 137.1975,142.2867 Q138.4788,141.5054 140.3538,141.5054 Q141.2444,141.5054 141.9163,141.6929 Q142.5881,141.8648 143.2756,142.2085 L142.4631,144.2242 Q141.8381,143.9117 141.2913,143.7867 Q140.76,143.6617 140.2756,143.6617 Q139.1038,143.6617 138.4006,144.1929 Q137.6975,144.7242 137.4006,145.6773 Q137.1038,146.6304 137.1038,147.896 Q137.1038,149.9117 137.8225,150.8804 Q138.5413,151.8335 140.135,151.8335 Q140.7288,151.8335 141.3538,151.6773 Q141.9788,151.521 142.8069,151.146 L142.8069,153.3648 Q142.0725,153.6773 141.2756,153.8335 Q140.4944,153.9898 139.7288,153.9898 Z " fill="#000000"/><text fill="#000000" font-family="sans-serif" font-size="14" lengthAdjust="spacing" textLength="121.4775" x="154.26" y="152.4999">OpenAIChatModel</text><line style="stroke:#181818;stroke-width:0.5;" x1="126.26" x2="277.7375" y1="163.0679" y2="163.0679"/></g><!--class OpenAIEmbeddingModel--><g class="entity" data-qualified-name="llm.providers .adapters. outer ring..OpenAIEmbeddingModel" data-source-line="46" id="ent0015"><rect fill="#F1F1F1" height="40" rx="2.5" ry="2.5" style="stroke:#181818;stroke-width:0.5;" width="198.5434" x="529.73" y="131.0679"/><ellipse cx="544.73" cy="147.0679" fill="#ADD1B2" rx="11" ry="11" style="stroke:#181818;stroke-width:1;"/><path d="M544.1988,153.9898 Q542.4488,153.9898 541.3081,153.2554 Q540.1831,152.5054 539.6206,151.1617 Q539.0738,149.8023 539.0738,148.0054 Q539.0738,145.9742 539.73,144.521 Q540.3863,143.0679 541.6675,142.2867 Q542.9488,141.5054 544.8238,141.5054 Q545.7144,141.5054 546.3863,141.6929 Q547.0581,141.8648 547.7456,142.2085 L546.9331,144.2242 Q546.3081,143.9117 545.7613,143.7867 Q545.23,143.6617 544.7456,143.6617 Q543.5738,143.6617 542.8706,144.1929 Q542.1675,144.7242 541.8706,145.6773 Q541.5738,146.6304 541.5738,147.896 Q541.5738,149.9117 542.2925,150.8804 Q543.0113,151.8335 544.605,151.8335 Q545.1988,151.8335 545.8238,151.6773 Q546.4488,151.521 547.2769,151.146 L547.2769,153.3648 Q546.5425,153.6773 545.7456,153.8335 Q544.9644,153.9898 544.1988,153.9898 Z " fill="#000000"/><text fill="#000000" font-family="sans-serif" font-size="14" lengthAdjust="spacing" textLength="166.5434" x="558.73" y="152.4999">OpenAIEmbeddingModel</text><line style="stroke:#181818;stroke-width:0.5;" x1="530.73" x2="727.2734" y1="163.0679" y2="163.0679"/></g><!--class PlaceholderChatModel--><g class="entity" data-qualified-name="llm.providers .adapters. outer ring..PlaceholderChatModel" data-source-line="47" id="ent0016"><rect fill="#F1F1F1" height="40" rx="2.5" ry="2.5" style="stroke:#181818;stroke-width:0.5;" width="181.2674" x="313.37" y="131.0679"/><ellipse cx="328.37" cy="147.0679" fill="#ADD1B2" rx="11" ry="11" style="stroke:#181818;stroke-width:1;"/><path d="M327.8388,153.9898 Q326.0888,153.9898 324.9481,153.2554 Q323.8231,152.5054 323.2606,151.1617 Q322.7138,149.8023 322.7138,148.0054 Q322.7138,145.9742 323.37,144.521 Q324.0263,143.0679 325.3075,142.2867 Q326.5888,141.5054 328.4638,141.5054 Q329.3544,141.5054 330.0263,141.6929 Q330.6981,141.8648 331.3856,142.2085 L330.5731,144.2242 Q329.9481,143.9117 329.4013,143.7867 Q328.87,143.6617 328.3856,143.6617 Q327.2138,143.6617 326.5106,144.1929 Q325.8075,144.7242 325.5106,145.6773 Q325.2138,146.6304 325.2138,147.896 Q325.2138,149.9117 325.9325,150.8804 Q326.6513,151.8335 328.245,151.8335 Q328.8388,151.8335 329.4638,151.6773 Q330.0888,151.521 330.9169,151.146 L330.9169,153.3648 Q330.1825,153.6773 329.3856,153.8335 Q328.6044,153.9898 327.8388,153.9898 Z " fill="#000000"/><text fill="#000000" font-family="sans-serif" font-size="14" lengthAdjust="spacing" textLength="149.2674" x="342.37" y="152.4999">PlaceholderChatModel</text><line style="stroke:#181818;stroke-width:0.5;" x1="314.37" x2="493.6374" y1="163.0679" y2="163.0679"/></g><!--reverse link Message to Role--><g class="link" data-entity-1="ent0003" data-entity-2="ent0002" data-link-type="aggregation" data-source-line="50" id="lnk17"><path codeLine="50" d="M185,654.3679 C185,676.4179 185,692.4379 185,711.1079" fill="none" id="Message-backto-Role" style="stroke:#181818;stroke-width:1;"/><polygon fill="none" points="185,642.3679,181,648.3679,185,654.3679,189,648.3679,185,642.3679" style="stroke:#181818;stroke-width:1;stroke-linejoin:miter;stroke-miterlimit:10;"/></g><!--reverse link Message to ToolCall--><g class="link" data-entity-1="ent0003" data-entity-2="ent0004" data-link-type="aggregation" data-source-line="51" id="lnk18"><path codeLine="51" d="M300.06,654.3679 C300.06,676.4179 300.06,692.4379 300.06,711.1079" fill="none" id="Message-backto-ToolCall" style="stroke:#181818;stroke-width:1;"/><polygon fill="none" points="300.06,642.3679,296.06,648.3679,300.06,654.3679,304.06,648.3679,300.06,642.3679" style="stroke:#181818;stroke-width:1;stroke-linejoin:miter;stroke-miterlimit:10;"/><text fill="#000000" font-family="sans-serif" font-size="13" lengthAdjust="spacing" textLength="7.163" x="283.5544" y="699.6281">*</text></g><!--reverse link Completion to ToolCall--><g class="link" data-entity-1="ent0006" data-entity-2="ent0004" data-link-type="aggregation" data-source-line="52" id="lnk19"><path codeLine="52" d="M467.01,508.0979 C467.01,580.3979 467.01,731.4779 467.01,731.4779 C467.01,731.4779 412.09,731.4779 371.53,731.4779" fill="none" id="Completion-backto-ToolCall" style="stroke:#181818;stroke-width:1;"/><polygon fill="none" points="467.01,496.0979,463.01,502.0979,467.01,508.0979,471.01,502.0979,467.01,496.0979" style="stroke:#181818;stroke-width:1;stroke-linejoin:miter;stroke-miterlimit:10;"/><text fill="#000000" font-family="sans-serif" font-size="13" lengthAdjust="spacing" textLength="7.163" x="379.1671" y="727.0256">*</text></g><!--reverse link Completion to TokenUsage--><g class="link" data-entity-1="ent0006" data-entity-2="ent0005" data-link-type="aggregation" data-source-line="53" id="lnk20"><path codeLine="53" d="M550.41,508.1679 C550.41,528.6579 550.41,542.9779 550.41,564.9879" fill="none" id="Completion-backto-TokenUsage" style="stroke:#181818;stroke-width:1;"/><polygon fill="none" points="550.41,496.1679,546.41,502.1679,550.41,508.1679,554.41,502.1679,550.41,496.1679" style="stroke:#181818;stroke-width:1;stroke-linejoin:miter;stroke-miterlimit:10;"/></g><!--reverse link Conversation to Message--><g class="link" data-entity-1="ent0007" data-entity-2="ent0003" data-link-type="aggregation" data-source-line="54" id="lnk21"><path codeLine="54" d="M157.7,517.7279 C157.7,539.7679 157.7,554.1379 157.7,574.6379" fill="none" id="Conversation-backto-Message" style="stroke:#181818;stroke-width:1;"/><polygon fill="none" points="157.7,505.7279,153.7,511.7279,157.7,517.7279,161.7,511.7279,157.7,505.7279" style="stroke:#181818;stroke-width:1;stroke-linejoin:miter;stroke-miterlimit:10;"/><text fill="#000000" font-family="sans-serif" font-size="13" lengthAdjust="spacing" textLength="7.163" x="144.3648" y="562.8887">*</text></g><!--link ChatModel to Conversation--><g class="link" data-entity-1="ent0009" data-entity-2="ent0007" data-link-type="dependency" data-source-line="56" id="lnk22"><path codeLine="56" d="M241.79,359.5879 C241.79,378.2679 241.79,395.0479 241.79,413.7379" fill="none" id="ChatModel-to-Conversation" style="stroke:#181818;stroke-width:1;stroke-dasharray:7,7;"/><polygon fill="#181818" points="241.79,418.7379,245.79,409.7379,241.79,413.7379,237.79,409.7379,241.79,418.7379" style="stroke:#181818;stroke-width:1;stroke-linejoin:miter;stroke-miterlimit:10;"/></g><!--link ChatModel to Completion--><g class="link" data-entity-1="ent0009" data-entity-2="ent0006" data-link-type="dependency" data-source-line="57" id="lnk23"><path codeLine="57" d="M458.33,359.5879 C458.33,381.6279 458.33,403.0079 458.33,423.4979" fill="none" id="ChatModel-to-Completion" style="stroke:#181818;stroke-width:1;stroke-dasharray:7,7;"/><polygon fill="#181818" points="458.33,428.4979,462.33,419.4979,458.33,423.4979,454.33,419.4979,458.33,428.4979" style="stroke:#181818;stroke-width:1;stroke-linejoin:miter;stroke-miterlimit:10;"/></g><!--link ChatModel to ToolSchema--><g class="link" data-entity-1="ent0009" data-entity-2="ent0008" data-link-type="dependency" data-source-line="58" id="lnk24"><path codeLine="58" d="M350,359.5879 C350,383.6479 350,407.8679 350,428.9779" fill="none" id="ChatModel-to-ToolSchema" style="stroke:#181818;stroke-width:1;stroke-dasharray:7,7;"/><polygon fill="#181818" points="350,433.9779,354,424.9779,350,428.9779,346,424.9779,350,433.9779" style="stroke:#181818;stroke-width:1;stroke-linejoin:miter;stroke-miterlimit:10;"/></g><!--link Pricing to TokenUsage--><g class="link" data-entity-1="ent0011" data-entity-2="ent0005" data-link-type="dependency" data-source-line="59" id="lnk25"><path codeLine="59" d="M672.61,490.7979 C672.61,511.8979 672.61,536.0079 672.61,559.9879" fill="none" id="Pricing-to-TokenUsage" style="stroke:#181818;stroke-width:1;stroke-dasharray:7,7;"/><polygon fill="#181818" points="672.61,564.9879,676.61,555.9879,672.61,559.9879,668.61,555.9879,672.61,564.9879" style="stroke:#181818;stroke-width:1;stroke-linejoin:miter;stroke-miterlimit:10;"/></g><!--link OpenAIChatModel to ChatModel--><g class="link" data-entity-1="ent0013" data-entity-2="ent0009" data-link-type="extension" data-source-line="61" id="lnk26"><path codeLine="61" d="M251.84,171.3079 C251.84,196.4479 251.84,222.0179 251.84,254.8179" fill="none" id="OpenAIChatModel-to-ChatModel" style="stroke:#181818;stroke-width:1;stroke-dasharray:7,7;"/><polygon fill="none" points="251.84,272.8179,257.84,254.8179,245.84,254.8179,251.84,272.8179" style="stroke:#181818;stroke-width:1;stroke-linejoin:miter;stroke-miterlimit:10;"/></g><!--link PlaceholderChatModel to ChatModel--><g class="link" data-entity-1="ent0016" data-entity-2="ent0009" data-link-type="extension" data-source-line="62" id="lnk27"><path codeLine="62" d="M394.21,171.3079 C394.21,196.4479 394.21,222.0179 394.21,254.8179" fill="none" id="PlaceholderChatModel-to-ChatModel" style="stroke:#181818;stroke-width:1;stroke-dasharray:7,7;"/><polygon fill="none" points="394.21,272.8179,400.21,254.8179,388.21,254.8179,394.21,272.8179" style="stroke:#181818;stroke-width:1;stroke-linejoin:miter;stroke-miterlimit:10;"/></g><!--link OpenAIEmbeddingModel to EmbeddingModel--><g class="link" data-entity-1="ent0015" data-entity-2="ent0010" data-link-type="extension" data-source-line="63" id="lnk28"><path codeLine="63" d="M629,171.3079 C629,196.4479 629,222.0179 629,254.8179" fill="none" id="OpenAIEmbeddingModel-to-EmbeddingModel" style="stroke:#181818;stroke-width:1;stroke-dasharray:7,7;"/><polygon fill="none" points="629,272.8179,635,254.8179,623,254.8179,629,272.8179" style="stroke:#181818;stroke-width:1;stroke-linejoin:miter;stroke-miterlimit:10;"/></g><g class="legend" data-source-line="7"><rect fill="#DDDDDD" height="67.2038" rx="7.5" ry="7.5" style="stroke:#000000;stroke-width:1;" width="226.4952" x="12" y="787.4779"/><ellipse cx="22.5" cy="804.0458" fill="#000000" rx="2.5" ry="2.5"/><text fill="#000000" font-family="sans-serif" font-size="14" lengthAdjust="spacing" textLength="140.9935" x="29" y="807.4439">-- owns (composition)</text><text fill="#000000" font-family="sans-serif" font-size="14" lengthAdjust="spacing" textLength="216.4952" x="17" y="826.5118">..|&gt; implements (adapter -&gt; port)</text><text fill="#000000" font-family="sans-serif" font-size="14" lengthAdjust="spacing" textLength="96.8936" x="17" y="845.5797">..&gt; depends on</text></g><?plantuml-src fLJBZjD04BpxArevESict5UH9HHnuB1YHU26P4tiJZna7cQcaoM2bVW8lf0leSUF-1473lXYUxgxkgQcUaYIGb1Am--Vl-0ar171RhzWHluUIkl2IvWSIcTFCaS78XSbeVDHv0_IbC893KeQf7F9bOuAsmkK8Zk8FMxep4qSWmgpLnWLZ0IeIpg3Hgx86KtX7hcFmXr507UB1TXduo7Eh2wjboIjcNDWkVoHWDIbGes6EDxmWKLIqQrp4iYnP3WFraJyhi6ZgE43ix3XEBTQI3EVmNSkgXyqHmqVB7DiLp8bl8T7z3uKTfdjyygVFQ6Ev_0QZXvTzS4bqlDcgVeZQrKylrI-ZB0_SdWjbBfQFg3vTAihMH8C-W3Iq7KqJKMUfsbigK37IHtMJHPh6qGDCa-rS_ZrY9vy6lRYGzyjV_m5p9pO8-8MtBEa8jMrfh5cj7x1TNgJMVNT12OckxsHMT1panMenMUpMbM-54eAdoGpFXZemj6baaL4jnCPmheGz6XpL5EqsRQ6v4w6Ktu0J-uw9QjbHFQjETrNH--h_RNgJl3kkh_LMynpQVR_Gm43I4puZK9dnKPSdNZqh4jwlSUYyU5ABGZJp7fsRL2kT39ZAeriJ_LVz3ASecLxCNIZo3U6FOQHT9m_cAwwrtkUp3VlBa9FHeT2Z5AU56jLMCLTEnJcrGwfvSkZck7-mknkrarQp-p_YlL6P-3gjgxf4KMTSyBzCp3qE7JnmZ3GSsQZThDyOH2DjAklmqw4AMN6ELC2rpaZqVy0?></g></svg>