<svg xmlns="http://www.w3.org/2000/svg" xmlns:xlink="http://www.w3.org/1999/xlink" contentStyleType="text/css" data-diagram-type="CLASS" height="581px" preserveAspectRatio="none" style="width:880px;height:581px;background:#FFFFFF;" version="1.1" viewBox="0 0 880 581" width="880px" zoomAndPan="magnify"><?plantuml $version$?><defs/><g><g class="title" data-source-line="1"><text fill="#000000" font-family="sans-serif" font-size="14" font-weight="700" lengthAdjust="spacing" textLength="444.6523" x="214.6625" y="24.9659">harness.control &#8212; hard limits (guards) vs graded stalls (tracker)</text></g><!--class Guard--><g class="entity" data-qualified-name="Guard" data-source-line="13" id="ent0001"><rect fill="#F1F1F1" height="86.1358" rx="2.5" ry="2.5" style="stroke:#181818;stroke-width:0.5;" width="172.7894" x="32.36" y="212.2679"/><ellipse cx="94.8908" cy="228.2679" fill="#B4A7E5" rx="11" ry="11" style="stroke:#181818;stroke-width:1;"/><path d="M90.922,234.7679 L90.922,233.0648 L93.2814,232.7992 L93.2814,224.596 L90.922,224.3304 L90.922,222.6273 L98.0627,222.6273 L98.0627,224.3304 L95.6408,224.596 L95.6408,232.7992 L98.0627,233.0648 L98.0627,234.7679 L90.922,234.7679 Z " fill="#000000"/><text fill="#000000" font-family="sans-serif" font-size="14" font-style="italic" lengthAdjust="spacing" textLength="39.2278" x="115.3908" y="233.6999">Guard</text><line style="stroke:#181818;stroke-width:0.5;" x1="33.36" x2="204.1494" y1="244.2679" y2="244.2679"/><g data-visibility-modifier="PUBLIC_FIELD"><ellipse cx="43.36" cy="259.3019" fill="none" rx="3" ry="3" style="stroke:#038048;stroke-width:1;"/></g><text fill="#000000" font-family="sans-serif" font-size="14" lengthAdjust="spacing" textLength="37.4919" x="52.36" y="263.2339">name</text><line style="stroke:#181818;stroke-width:0.5;" x1="33.36" x2="204.1494" y1="271.3358" y2="271.3358"/><g data-visibility-modifier="PUBLIC_METHOD"><ellipse cx="43.36" cy="286.3698" fill="#84BE84" rx="3" ry="3" style="stroke:#038048;stroke-width:1;"/></g><text fill="#000000" font-family="sans-serif" font-size="14" lengthAdjust="spacing" textLength="146.7894" x="52.36" y="290.3018">evaluate(ctx): Decision</text></g><!--class Decision--><g class="entity" data-qualified-name="Decision" data-source-line="17" id="ent0002"><rect fill="#F1F1F1" height="86.1358" rx="2.5" ry="2.5" style="stroke:#181818;stroke-width:0.5;" width="167.4974" x="135" y="363.9379"/><ellipse cx="186.5548" cy="379.9379" fill="#ADD1B2" rx="11" ry="11" style="stroke:#181818;stroke-width:1;"/><path d="M186.0236,386.8598 Q184.2736,386.8598 183.133,386.1254 Q182.008,385.3754 181.4455,384.0317 Q180.8986,382.6723 180.8986,380.8754 Q180.8986,378.8442 181.5548,377.391 Q182.2111,375.9379 183.4923,375.1567 Q184.7736,374.3754 186.6486,374.3754 Q187.5392,374.3754 188.2111,374.5629 Q188.883,374.7348 189.5705,375.0785 L188.758,377.0942 Q188.133,376.7817 187.5861,376.6567 Q187.0548,376.5317 186.5705,376.5317 Q185.3986,376.5317 184.6955,377.0629 Q183.9923,377.5942 183.6955,378.5473 Q183.3986,379.5004 183.3986,380.766 Q183.3986,382.7817 184.1173,383.7504 Q184.8361,384.7035 186.4298,384.7035 Q187.0236,384.7035 187.6486,384.5473 Q188.2736,384.391 189.1017,384.016 L189.1017,386.2348 Q188.3673,386.5473 187.5705,386.7035 Q186.7892,386.8598 186.0236,386.8598 Z " fill="#000000"/><text fill="#000000" font-family="sans-serif" font-size="14" lengthAdjust="spacing" textLength="55.8878" x="207.0548" y="385.3699">Decision</text><line style="stroke:#181818;stroke-width:0.5;" x1="136" x2="301.4974" y1="395.9379" y2="395.9379"/><line style="stroke:#181818;stroke-width:0.5;" x1="136" x2="301.4974" y1="403.9379" y2="403.9379"/><g data-visibility-modifier="PUBLIC_METHOD"><ellipse cx="146" cy="418.9719" fill="#84BE84" rx="3" ry="3" style="stroke:#038048;stroke-width:1;"/></g><text fill="#000000" font-family="sans-serif" font-size="14" lengthAdjust="spacing" textLength="141.4974" x="155" y="422.9039">allow() / deny(reason)</text><g data-visibility-modifier="PUBLIC_METHOD"><ellipse cx="146" cy="438.0398" fill="#84BE84" rx="3" ry="3" style="stroke:#038048;stroke-width:1;"/></g><text fill="#000000" font-family="sans-serif" font-size="14" lengthAdjust="spacing" textLength="90.2296" x="155" y="441.9718">denied(): bool</text></g><!--class Controller--><g class="entity" data-qualified-name="Controller" data-source-line="21" id="ent0003"><rect fill="#F1F1F1" height="67.0679" rx="2.5" ry="2.5" style="stroke:#181818;stroke-width:0.5;" width="160.9035" x="177.3" y="66.1279"/><ellipse cx="220.5266" cy="82.1279" fill="#ADD1B2" rx="11" ry="11" style="stroke:#181818;stroke-width:1;"/><path d="M219.9953,89.0498 Q218.2453,89.0498 217.1047,88.3154 Q215.9797,87.5654 215.4172,86.2217 Q214.8703,84.8623 214.8703,83.0654 Q214.8703,81.0342 215.5266,79.581 Q216.1828,78.1279 217.4641,77.3467 Q218.7453,76.5654 220.6203,76.5654 Q221.511,76.5654 222.1828,76.7529 Q222.8547,76.9248 223.5422,77.2685 L222.7297,79.2842 Q222.1047,78.9717 221.5578,78.8467 Q221.0266,78.7217 220.5422,78.7217 Q219.3703,78.7217 218.6672,79.2529 Q217.9641,79.7842 217.6672,80.7373 Q217.3703,81.6904 217.3703,82.956 Q217.3703,84.9717 218.0891,85.9404 Q218.8078,86.8935 220.4016,86.8935 Q220.9953,86.8935 221.6203,86.7373 Q222.2453,86.581 223.0735,86.206 L223.0735,88.4248 Q222.3391,88.7373 221.5422,88.8935 Q220.761,89.0498 219.9953,89.0498 Z " fill="#000000"/><text fill="#000000" font-family="sans-serif" font-size="14" lengthAdjust="spacing" textLength="66.1777" x="240.7991" y="87.5599">Controller</text><line style="stroke:#181818;stroke-width:0.5;" x1="178.3" x2="337.2035" y1="98.1279" y2="98.1279"/><line style="stroke:#181818;stroke-width:0.5;" x1="178.3" x2="337.2035" y1="106.1279" y2="106.1279"/><g data-visibility-modifier="PUBLIC_METHOD"><ellipse cx="188.3" cy="121.1619" fill="#84BE84" rx="3" ry="3" style="stroke:#038048;stroke-width:1;"/></g><text fill="#000000" font-family="sans-serif" font-size="14" lengthAdjust="spacing" textLength="134.9035" x="197.3" y="125.0939">permit(ctx): Decision</text></g><!--class IterationLimiter--><g class="entity" data-qualified-name="IterationLimiter" data-source-line="25" id="ent0004"><rect fill="#F1F1F1" height="59.0679" rx="2.5" ry="2.5" style="stroke:#181818;stroke-width:0.5;" width="135.5016" x="7" y="70.1279"/><ellipse cx="22" cy="86.1279" fill="#ADD1B2" rx="11" ry="11" style="stroke:#181818;stroke-width:1;"/><path d="M21.4688,93.0498 Q19.7188,93.0498 18.5781,92.3154 Q17.4531,91.5654 16.8906,90.2217 Q16.3438,88.8623 16.3438,87.0654 Q16.3438,85.0342 17,83.581 Q17.6563,82.1279 18.9375,81.3467 Q20.2188,80.5654 22.0938,80.5654 Q22.9844,80.5654 23.6563,80.7529 Q24.3281,80.9248 25.0156,81.2685 L24.2031,83.2842 Q23.5781,82.9717 23.0313,82.8467 Q22.5,82.7217 22.0156,82.7217 Q20.8438,82.7217 20.1406,83.2529 Q19.4375,83.7842 19.1406,84.7373 Q18.8438,85.6904 18.8438,86.956 Q18.8438,88.9717 19.5625,89.9404 Q20.2813,90.8935 21.875,90.8935 Q22.4688,90.8935 23.0938,90.7373 Q23.7188,90.581 24.5469,90.206 L24.5469,92.4248 Q23.8125,92.7373 23.0156,92.8935 Q22.2344,93.0498 21.4688,93.0498 Z " fill="#000000"/><text fill="#000000" font-family="sans-serif" font-size="14" lengthAdjust="spacing" textLength="103.5016" x="36" y="91.5599">IterationLimiter</text><line style="stroke:#181818;stroke-width:0.5;" x1="8" x2="141.5016" y1="102.1279" y2="102.1279"/><g data-visibility-modifier="PUBLIC_FIELD"><ellipse cx="18" cy="117.1619" fill="none" rx="3" ry="3" style="stroke:#038048;stroke-width:1;"/></g><text fill="#000000" font-family="sans-serif" font-size="14" lengthAdjust="spacing" textLength="97.2576" x="27" y="121.0939">max_iterations</text></g><!--class ProgressTracker--><g class="entity" data-qualified-name="ProgressTracker" data-source-line="29" id="ent0005"><rect fill="#F1F1F1" height="105.2038" rx="2.5" ry="2.5" style="stroke:#181818;stroke-width:0.5;" width="240.3252" x="468.59" y="47.0679"/><ellipse cx="530.6448" cy="63.0679" fill="#ADD1B2" rx="11" ry="11" style="stroke:#181818;stroke-width:1;"/><path d="M530.1136,69.9898 Q528.3636,69.9898 527.2229,69.2554 Q526.0979,68.5054 525.5354,67.1617 Q524.9886,65.8023 524.9886,64.0054 Q524.9886,61.9742 525.6448,60.521 Q526.3011,59.0679 527.5823,58.2867 Q528.8636,57.5054 530.7386,57.5054 Q531.6292,57.5054 532.3011,57.6929 Q532.9729,57.8648 533.6604,58.2085 L532.8479,60.2242 Q532.2229,59.9117 531.6761,59.7867 Q531.1448,59.6617 530.6604,59.6617 Q529.4886,59.6617 528.7854,60.1929 Q528.0823,60.7242 527.7854,61.6773 Q527.4886,62.6304 527.4886,63.896 Q527.4886,65.9117 528.2073,66.8804 Q528.9261,67.8335 530.5198,67.8335 Q531.1136,67.8335 531.7386,67.6773 Q532.3636,67.521 533.1917,67.146 L533.1917,69.3648 Q532.4573,69.6773 531.6604,69.8335 Q530.8792,69.9898 530.1136,69.9898 Z " fill="#000000"/><text fill="#000000" font-family="sans-serif" font-size="14" lengthAdjust="spacing" textLength="107.7156" x="551.1448" y="68.4999">ProgressTracker</text><line style="stroke:#181818;stroke-width:0.5;" x1="469.59" x2="707.9152" y1="79.0679" y2="79.0679"/><g data-visibility-modifier="PUBLIC_FIELD"><ellipse cx="479.59" cy="94.1019" fill="none" rx="3" ry="3" style="stroke:#038048;stroke-width:1;"/></g><text fill="#000000" font-family="sans-serif" font-size="14" lengthAdjust="spacing" textLength="141.9034" x="488.59" y="98.0339">stall_at = 2  ' -&gt; nudge</text><g data-visibility-modifier="PUBLIC_FIELD"><ellipse cx="479.59" cy="113.1698" fill="none" rx="3" ry="3" style="stroke:#038048;stroke-width:1;"/></g><text fill="#000000" font-family="sans-serif" font-size="14" lengthAdjust="spacing" textLength="130.2975" x="488.59" y="117.1018">stop_at  = 3  ' -&gt; halt</text><line style="stroke:#181818;stroke-width:0.5;" x1="469.59" x2="707.9152" y1="125.2038" y2="125.2038"/><g data-visibility-modifier="PUBLIC_METHOD"><ellipse cx="479.59" cy="140.2377" fill="#84BE84" rx="3" ry="3" style="stroke:#038048;stroke-width:1;"/></g><text fill="#000000" font-family="sans-serif" font-size="14" lengthAdjust="spacing" textLength="214.3252" x="488.59" y="144.1697">assess(ctx): ProgressAssessment</text></g><!--class Progress--><g class="entity" data-qualified-name="Progress" data-source-line="34" id="ent0006"><rect fill="#F1F1F1" height="97.2038" rx="2.5" ry="2.5" style="stroke:#181818;stroke-width:0.5;" width="93.5777" x="399.96" y="358.4079"/><ellipse cx="416.3801" cy="374.4079" fill="#EB937F" rx="11" ry="11" style="stroke:#181818;stroke-width:1;"/><path d="M412.7395,380.9079 L412.7395,368.7673 L420.3958,368.7673 L420.3958,370.8923 L415.1145,370.8923 L415.1145,373.5485 L420.1301,373.5485 L420.1301,375.6735 L415.1145,375.6735 L415.1145,378.7829 L420.3958,378.7829 L420.3958,380.9079 L412.7395,380.9079 Z " fill="#000000"/><text fill="#000000" font-family="sans-serif" font-size="14" lengthAdjust="spacing" textLength="58.4218" x="430.6957" y="379.8399">Progress</text><line style="stroke:#181818;stroke-width:0.5;" x1="400.96" x2="492.5377" y1="390.4079" y2="390.4079"/><text fill="#000000" font-family="sans-serif" font-size="14" lengthAdjust="spacing" textLength="81.5777" x="405.96" y="409.3739">ADVANCING</text><text fill="#000000" font-family="sans-serif" font-size="14" lengthAdjust="spacing" textLength="64.6657" x="405.96" y="428.4418">STALLING</text><text fill="#000000" font-family="sans-serif" font-size="14" lengthAdjust="spacing" textLength="57.0918" x="405.96" y="447.5097">STALLED</text></g><!--class ProgressAssessment--><g class="entity" data-qualified-name="ProgressAssessment" data-source-line="39" id="ent0007"><rect fill="#F1F1F1" height="59.0679" rx="2.5" ry="2.5" style="stroke:#181818;stroke-width:0.5;" width="195.1474" x="349.18" y="225.7979"/><ellipse cx="376.0455" cy="241.7979" fill="#ADD1B2" rx="11" ry="11" style="stroke:#181818;stroke-width:1;"/><path d="M375.5143,248.7198 Q373.7643,248.7198 372.6237,247.9854 Q371.4987,247.2354 370.9362,245.8917 Q370.3893,244.5323 370.3893,242.7354 Q370.3893,240.7042 371.0455,239.251 Q371.7018,237.7979 372.983,237.0167 Q374.2643,236.2354 376.1393,236.2354 Q377.0299,236.2354 377.7018,236.4229 Q378.3737,236.5948 379.0612,236.9385 L378.2487,238.9542 Q377.6237,238.6417 377.0768,238.5167 Q376.5455,238.3917 376.0612,238.3917 Q374.8893,238.3917 374.1862,238.9229 Q373.483,239.4542 373.1862,240.4073 Q372.8893,241.3604 372.8893,242.626 Q372.8893,244.6417 373.608,245.6104 Q374.3268,246.5635 375.9205,246.5635 Q376.5143,246.5635 377.1393,246.4073 Q377.7643,246.251 378.5924,245.876 L378.5924,248.0948 Q377.858,248.4073 377.0612,248.5635 Q376.2799,248.7198 375.5143,248.7198 Z " fill="#000000"/><text fill="#000000" font-family="sans-serif" font-size="14" lengthAdjust="spacing" textLength="136.7795" x="392.6823" y="247.2299">ProgressAssessment</text><line style="stroke:#181818;stroke-width:0.5;" x1="350.18" x2="543.3274" y1="257.7979" y2="257.7979"/><g data-visibility-modifier="PUBLIC_FIELD"><ellipse cx="360.18" cy="272.8319" fill="none" rx="3" ry="3" style="stroke:#038048;stroke-width:1;"/></g><text fill="#000000" font-family="sans-serif" font-size="14" lengthAdjust="spacing" textLength="169.1474" x="369.18" y="276.7639">advancing/stalling/stalled</text></g><g class="entity" data-qualified-name="GMN14" data-source-line="51" id="ent0015"><path d="M579.53,232.6279 L579.53,278.0399 A0,0 0 0 0 579.53,278.0399 L865.9773,278.0399 A0,0 0 0 0 865.9773,278.0399 L865.9773,242.6279 L855.9773,232.6279 L648.22,232.6279 L644.22,152.3679 L640.22,232.6279 L579.53,232.6279 A0,0 0 0 0 579.53,232.6279" fill="#FEFFDD" style="stroke:#181818;stroke-width:0.5;"/><path d="M855.9773,232.6279 L855.9773,242.6279 L865.9773,242.6279 L855.9773,232.6279" fill="#FEFFDD" style="stroke:#181818;stroke-width:0.5;"/><text fill="#000000" font-family="sans-serif" font-size="13" lengthAdjust="spacing" textLength="257.5042" x="585.53" y="251.5249">ObservationPhase asks the Controller first</text><text fill="#000000" font-family="sans-serif" font-size="13" lengthAdjust="spacing" textLength="265.4473" x="585.53" y="269.2309">(hard deny), then the tracker (nudge / stall).</text></g><!--reverse link Controller to Guard--><g class="link" data-entity-1="ent0003" data-entity-2="ent0001" data-link-type="aggregation" data-source-line="43" id="lnk8"><path codeLine="43" d="M191.22,145.4479 C191.22,168.4279 191.22,187.0479 191.22,211.8479" fill="none" id="Controller-backto-Guard" style="stroke:#181818;stroke-width:1;"/><polygon fill="none" points="191.22,133.4479,187.22,139.4479,191.22,145.4479,195.22,139.4479,191.22,133.4479" style="stroke:#181818;stroke-width:1;stroke-linejoin:miter;stroke-miterlimit:10;"/><text fill="#000000" font-family="sans-serif" font-size="13" lengthAdjust="spacing" textLength="7.163" x="195.2243" y="200.5156">*</text></g><!--link IterationLimiter to Guard--><g class="link" data-entity-1="ent0004" data-entity-2="ent0001" data-link-type="extension" data-source-line="44" id="lnk9"><path codeLine="44" d="M87.43,129.6779 C87.43,153.0079 87.43,167.6879 87.43,193.8679" fill="none" id="IterationLimiter-to-Guard" style="stroke:#181818;stroke-width:1;stroke-dasharray:7,7;"/><polygon fill="none" points="87.43,211.8679,93.43,193.8679,81.43,193.8679,87.43,211.8679" style="stroke:#181818;stroke-width:1;stroke-linejoin:miter;stroke-miterlimit:10;"/></g><!--link Guard to Decision--><g class="link" data-entity-1="ent0001" data-entity-2="ent0002" data-link-type="dependency" data-source-line="45" id="lnk10"><path codeLine="45" d="M170.07,298.7979 C170.07,319.1079 170.07,338.2279 170.07,358.5379" fill="none" id="Guard-to-Decision" style="stroke:#181818;stroke-width:1;stroke-dasharray:7,7;"/><polygon fill="#181818" points="170.07,363.5379,174.07,354.5379,170.07,358.5379,166.07,354.5379,170.07,363.5379" style="stroke:#181818;stroke-width:1;stroke-linejoin:miter;stroke-miterlimit:10;"/></g><!--link Controller to Decision--><g class="link" data-entity-1="ent0003" data-entity-2="ent0002" data-link-type="dependency" data-source-line="46" id="lnk11"><path codeLine="46" d="M253.82,133.4379 C253.82,189.4979 253.82,296.7079 253.82,358.5779" fill="none" id="Controller-to-Decision" style="stroke:#181818;stroke-width:1;stroke-dasharray:7,7;"/><polygon fill="#181818" points="253.82,363.5779,257.82,354.5779,253.82,358.5779,249.82,354.5779,253.82,363.5779" style="stroke:#181818;stroke-width:1;stroke-linejoin:miter;stroke-miterlimit:10;"/></g><!--link ProgressTracker to ProgressAssessment--><g class="link" data-entity-1="ent0005" data-entity-2="ent0007" data-link-type="dependency" data-source-line="47" id="lnk12"><path codeLine="47" d="M506.46,152.3679 C506.46,176.7179 506.46,199.7279 506.46,220.3879" fill="none" id="ProgressTracker-to-ProgressAssessment" style="stroke:#181818;stroke-width:1;stroke-dasharray:7,7;"/><polygon fill="#181818" points="506.46,225.3879,510.46,216.3879,506.46,220.3879,502.46,216.3879,506.46,225.3879" style="stroke:#181818;stroke-width:1;stroke-linejoin:miter;stroke-miterlimit:10;"/></g><!--reverse link ProgressAssessment to Progress--><g class="link" data-entity-1="ent0007" data-entity-2="ent0006" data-link-type="aggregation" data-source-line="48" id="lnk13"><path codeLine="48" d="M446.75,297.2979 C446.75,318.0179 446.75,334.0579 446.75,357.9979" fill="none" id="ProgressAssessment-backto-Progress" style="stroke:#181818;stroke-width:1;"/><polygon fill="none" points="446.75,285.2979,442.75,291.2979,446.75,297.2979,450.75,291.2979,446.75,285.2979" style="stroke:#181818;stroke-width:1;stroke-linejoin:miter;stroke-miterlimit:10;"/></g><g class="legend" data-source-line="6"><rect fill="#DDDDDD" height="86.2717" rx="7.5" ry="7.5" style="stroke:#000000;stroke-width:1;" width="356.1347" x="12" y="476.6117"/><text fill="#000000" font-family="sans-serif" font-size="14" lengthAdjust="spacing" textLength="87.7937" x="17" y="496.5776">o-- composes</text><text fill="#000000" font-family="sans-serif" font-size="14" lengthAdjust="spacing" textLength="105.0836" x="17" y="515.6455">..|&gt; implements</text><text fill="#000000" font-family="sans-serif" font-size="14" lengthAdjust="spacing" textLength="262.863" x="17" y="534.7134">The tracker is NOT a Guard: its verdict is</text><text fill="#000000" font-family="sans-serif" font-size="14" lengthAdjust="spacing" textLength="346.1347" x="17" y="553.7814">three-valued so the loop can nudge before stopping.</text></g><?plantuml-src RLJDYjim4BxhAOQzr6uR1zhRmWR2fYmB8RlGqEkYM6DRH9QCDCbkQ0jzY3vXdwGZEtQSP7solldxPkQJI9D1gAIt64AMEqlU6VZtvs_451XTQmgGb3i-XHJs0Kel5Ie898rX2tcPRz6dGeIjjetqikOeYtHe49odoebAAmIi6pf0ZGoe88J14Ytdnu84W9jC87Trum86FcRPhndekZ5OewM8h2k4OoNG0LPFQv3m44dTGYIuHwzqJcnZPweyucGlpIxoT7n6CCura4iBTgTAX0qMpYCtuPf6sp8JJAQZ98IsXBwGENO5u2UdxBvFLjPuEc4i8GcJdDxIMrXWheDsLlmMkP4X3C0u0m_DlIOfJ46XFIGUPN0sFTaPrQWIJhTnpWofxhl566v_bAn1p-kvBD-RFq2XVQ1OI4i3hzhokWgfpIGtF6YL3jaVkM597BkCwpwlKSkt5ztR0uSSOvwzAprhPdtSoYYabSQB9BY3Bv76PDPDVUpXckZ07b-F7fKqD1fJO2M4OsTzgNaBHaam3RIxUh2CgiyNF-Qh-yVLmu1yNy-NoolWss9e_ph_sSRKNjgSHJ9j-nf-KCLXZ1OJHNppyQPJZRYQQIlgpjRfAijcfwMDyfpXbsEEndVcyKuBaKuF2s4TiUeTaQl15PVRuswVDW7zlcNyNCc08CCsj5TdHAqL53idxUCG5Pn-ZZwsTUmlQDBTiMdtHgJjvO98GFm7?></g></svg>