<svg xmlns="http://www.w3.org/2000/svg" xmlns:xlink="http://www.w3.org/1999/xlink" contentStyleType="text/css" data-diagram-type="CLASS" height="628px" preserveAspectRatio="none" style="width:1704px;height:628px;background:#FFFFFF;" version="1.1" viewBox="0 0 1704 628" width="1704px" zoomAndPan="magnify"><?plantuml $version$?><defs/><g><g class="title" data-source-line="1"><text fill="#000000" font-family="sans-serif" font-size="14" font-weight="700" lengthAdjust="spacing" textLength="372.4546" x="662.6665" y="24.9659">observability &#8212; pure mapping + a thin OTel boundary</text></g><!--cluster harness--><g class="cluster" data-qualified-name="harness" data-source-line="14" id="ent0003"><path d="M8.5,65.7299 L64.7578,65.7299 A3.75,3.75 0 0 1 67.2578,68.2299 L74.2578,90.7978 L840.5,90.7978 A2.5,2.5 0 0 1 843,93.2978 L843,227.2299 A2.5,2.5 0 0 1 840.5,229.7299 L8.5,229.7299 A2.5,2.5 0 0 1 6,227.2299 L6,68.2299 A2.5,2.5 0 0 1 8.5,65.7299" fill="none" style="stroke:#000000;stroke-width:1.5;"/><line style="stroke:#000000;stroke-width:1.5;" x1="6" x2="74.2578" y1="90.7978" y2="90.7978"/><text fill="#000000" font-family="sans-serif" font-size="14" font-weight="700" lengthAdjust="spacing" textLength="55.2578" x="10" y="82.6958">harness</text></g><!--cluster events--><g class="cluster" data-qualified-name="harness.events" data-source-line="13" id="ent0001"><path d="M32.5,111.7299 L80.4138,111.7299 A3.75,3.75 0 0 1 82.9138,114.2299 L89.9138,136.7978 L816.5,136.7978 A2.5,2.5 0 0 1 819,139.2978 L819,203.2299 A2.5,2.5 0 0 1 816.5,205.7299 L32.5,205.7299 A2.5,2.5 0 0 1 30,203.2299 L30,114.2299 A2.5,2.5 0 0 1 32.5,111.7299" fill="none" style="stroke:#000000;stroke-width:1.5;"/><line style="stroke:#000000;stroke-width:1.5;" x1="30" x2="89.9138" y1="136.7978" y2="136.7978"/><text fill="#000000" font-family="sans-serif" font-size="14" font-weight="700" lengthAdjust="spacing" textLength="46.9138" x="34" y="128.6958">events</text></g><!--cluster observability--><g class="cluster" data-qualified-name="observability" data-source-line="22" id="ent0010"><path d="M869.5,46.6699 L961.5837,46.6699 A3.75,3.75 0 0 1 964.0837,49.1699 L971.0837,71.7378 L1447.5,71.7378 A2.5,2.5 0 0 1 1450,74.2378 L1450,499.8599 A2.5,2.5 0 0 1 1447.5,502.3599 L869.5,502.3599 A2.5,2.5 0 0 1 867,499.8599 L867,49.1699 A2.5,2.5 0 0 1 869.5,46.6699" fill="none" style="stroke:#000000;stroke-width:1.5;"/><line style="stroke:#000000;stroke-width:1.5;" x1="867" x2="971.0837" y1="71.7378" y2="71.7378"/><text fill="#000000" font-family="sans-serif" font-size="14" font-weight="700" lengthAdjust="spacing" textLength="91.0837" x="871" y="63.6358">observability</text></g><!--cluster spans (pure)--><g class="cluster" data-qualified-name="observability.spans .pure." data-source-line="21" id="ent0008"><path d="M893.5,253.7299 L980.5857,253.7299 A3.75,3.75 0 0 1 983.0857,256.2299 L990.0857,278.7978 L1157.5,278.7978 A2.5,2.5 0 0 1 1160,281.2978 L1160,475.8599 A2.5,2.5 0 0 1 1157.5,478.3599 L893.5,478.3599 A2.5,2.5 0 0 1 891,475.8599 L891,256.2299 A2.5,2.5 0 0 1 893.5,253.7299" fill="none" style="stroke:#000000;stroke-width:1.5;"/><line style="stroke:#000000;stroke-width:1.5;" x1="891" x2="990.0857" y1="278.7978" y2="278.7978"/><text fill="#000000" font-family="sans-serif" font-size="14" font-weight="700" lengthAdjust="spacing" textLength="86.0857" x="895" y="270.6958">spans (pure)</text></g><!--cluster phoenix (boundary)--><g class="cluster" data-qualified-name="observability.phoenix .boundary." data-source-line="29" id="ent0013"><path d="M1186.5,92.6699 L1324.3495,92.6699 A3.75,3.75 0 0 1 1326.8495,95.1699 L1333.8495,117.7378 L1423.5,117.7378 A2.5,2.5 0 0 1 1426,120.2378 L1426,345.2299 A2.5,2.5 0 0 1 1423.5,347.7299 L1186.5,347.7299 A2.5,2.5 0 0 1 1184,345.2299 L1184,95.1699 A2.5,2.5 0 0 1 1186.5,92.6699" fill="none" style="stroke:#000000;stroke-width:1.5;"/><line style="stroke:#000000;stroke-width:1.5;" x1="1184" x2="1333.8495" y1="117.7378" y2="117.7378"/><text fill="#000000" font-family="sans-serif" font-size="14" font-weight="700" lengthAdjust="spacing" textLength="136.8495" x="1188" y="109.6358">phoenix (boundary)</text></g><!--class ModelCalled--><g class="entity" data-qualified-name="harness.events.ModelCalled" data-source-line="14" id="ent0002"><rect fill="#F1F1F1" height="40" rx="2.5" ry="2.5" style="stroke:#181818;stroke-width:0.5;" width="113.7177" x="46.14" y="149.7299"/><ellipse cx="61.14" cy="165.7299" fill="#ADD1B2" rx="11" ry="11" style="stroke:#181818;stroke-width:1;"/><path d="M60.6088,172.6518 Q58.8588,172.6518 57.7181,171.9174 Q56.5931,171.1674 56.0306,169.8236 Q55.4838,168.4643 55.4838,166.6674 Q55.4838,164.6361 56.14,163.183 Q56.7963,161.7299 58.0775,160.9486 Q59.3588,160.1674 61.2338,160.1674 Q62.1244,160.1674 62.7963,160.3549 Q63.4681,160.5268 64.1556,160.8705 L63.3431,162.8861 Q62.7181,162.5736 62.1713,162.4486 Q61.64,162.3236 61.1556,162.3236 Q59.9838,162.3236 59.2806,162.8549 Q58.5775,163.3861 58.2806,164.3393 Q57.9838,165.2924 57.9838,166.558 Q57.9838,168.5736 58.7025,169.5424 Q59.4213,170.4955 61.015,170.4955 Q61.6088,170.4955 62.2338,170.3393 Q62.8588,170.183 63.6869,169.808 L63.6869,172.0268 Q62.9525,172.3393 62.1556,172.4955 Q61.3744,172.6518 60.6088,172.6518 Z " fill="#000000"/><text fill="#000000" font-family="sans-serif" font-size="14" lengthAdjust="spacing" textLength="81.7177" x="75.14" y="171.1619">ModelCalled</text><line style="stroke:#181818;stroke-width:0.5;" x1="47.14" x2="158.8577" y1="181.7299" y2="181.7299"/></g><!--class ModelCompleted--><g class="entity" data-qualified-name="harness.events.ModelCompleted" data-source-line="15" id="ent0004"><rect fill="#F1F1F1" height="40" rx="2.5" ry="2.5" style="stroke:#181818;stroke-width:0.5;" width="145.3716" x="195.31" y="149.7299"/><ellipse cx="210.31" cy="165.7299" fill="#ADD1B2" rx="11" ry="11" style="stroke:#181818;stroke-width:1;"/><path d="M209.7788,172.6518 Q208.0288,172.6518 206.8881,171.9174 Q205.7631,171.1674 205.2006,169.8236 Q204.6538,168.4643 204.6538,166.6674 Q204.6538,164.6361 205.31,163.183 Q205.9663,161.7299 207.2475,160.9486 Q208.5288,160.1674 210.4038,160.1674 Q211.2944,160.1674 211.9663,160.3549 Q212.6381,160.5268 213.3256,160.8705 L212.5131,162.8861 Q211.8881,162.5736 211.3413,162.4486 Q210.81,162.3236 210.3256,162.3236 Q209.1538,162.3236 208.4506,162.8549 Q207.7475,163.3861 207.4506,164.3393 Q207.1538,165.2924 207.1538,166.558 Q207.1538,168.5736 207.8725,169.5424 Q208.5913,170.4955 210.185,170.4955 Q210.7788,170.4955 211.4038,170.3393 Q212.0288,170.183 212.8569,169.808 L212.8569,172.0268 Q212.1225,172.3393 211.3256,172.4955 Q210.5444,172.6518 209.7788,172.6518 Z " fill="#000000"/><text fill="#000000" font-family="sans-serif" font-size="14" lengthAdjust="spacing" textLength="113.3716" x="224.31" y="171.1619">ModelCompleted</text><line style="stroke:#181818;stroke-width:0.5;" x1="196.31" x2="339.6816" y1="181.7299" y2="181.7299"/></g><!--class ToolInvoked--><g class="entity" data-qualified-name="harness.events.ToolInvoked" data-source-line="16" id="ent0005"><rect fill="#F1F1F1" height="40" rx="2.5" ry="2.5" style="stroke:#181818;stroke-width:0.5;" width="113.2977" x="375.35" y="149.7299"/><ellipse cx="390.35" cy="165.7299" fill="#ADD1B2" rx="11" ry="11" style="stroke:#181818;stroke-width:1;"/><path d="M389.8188,172.6518 Q388.0688,172.6518 386.9281,171.9174 Q385.8031,171.1674 385.2406,169.8236 Q384.6938,168.4643 384.6938,166.6674 Q384.6938,164.6361 385.35,163.183 Q386.0063,161.7299 387.2875,160.9486 Q388.5688,160.1674 390.4438,160.1674 Q391.3344,160.1674 392.0063,160.3549 Q392.6781,160.5268 393.3656,160.8705 L392.5531,162.8861 Q391.9281,162.5736 391.3813,162.4486 Q390.85,162.3236 390.3656,162.3236 Q389.1938,162.3236 388.4906,162.8549 Q387.7875,163.3861 387.4906,164.3393 Q387.1938,165.2924 387.1938,166.558 Q387.1938,168.5736 387.9125,169.5424 Q388.6313,170.4955 390.225,170.4955 Q390.8188,170.4955 391.4438,170.3393 Q392.0688,170.183 392.8969,169.808 L392.8969,172.0268 Q392.1625,172.3393 391.3656,172.4955 Q390.5844,172.6518 389.8188,172.6518 Z " fill="#000000"/><text fill="#000000" font-family="sans-serif" font-size="14" lengthAdjust="spacing" textLength="81.2977" x="404.35" y="171.1619">ToolInvoked</text><line style="stroke:#181818;stroke-width:0.5;" x1="376.35" x2="487.6477" y1="181.7299" y2="181.7299"/></g><!--class ToolObserved--><g class="entity" data-qualified-name="harness.events.ToolObserved" data-source-line="17" id="ent0006"><rect fill="#F1F1F1" height="40" rx="2.5" ry="2.5" style="stroke:#181818;stroke-width:0.5;" width="123.8817" x="524.06" y="149.7299"/><ellipse cx="539.06" cy="165.7299" fill="#ADD1B2" rx="11" ry="11" style="stroke:#181818;stroke-width:1;"/><path d="M538.5288,172.6518 Q536.7788,172.6518 535.6381,171.9174 Q534.5131,171.1674 533.9506,169.8236 Q533.4038,168.4643 533.4038,166.6674 Q533.4038,164.6361 534.06,163.183 Q534.7163,161.7299 535.9975,160.9486 Q537.2788,160.1674 539.1538,160.1674 Q540.0444,160.1674 540.7163,160.3549 Q541.3881,160.5268 542.0756,160.8705 L541.2631,162.8861 Q540.6381,162.5736 540.0913,162.4486 Q539.56,162.3236 539.0756,162.3236 Q537.9038,162.3236 537.2006,162.8549 Q536.4975,163.3861 536.2006,164.3393 Q535.9038,165.2924 535.9038,166.558 Q535.9038,168.5736 536.6225,169.5424 Q537.3413,170.4955 538.935,170.4955 Q539.5288,170.4955 540.1538,170.3393 Q540.7788,170.183 541.6069,169.808 L541.6069,172.0268 Q540.8725,172.3393 540.0756,172.4955 Q539.2944,172.6518 538.5288,172.6518 Z " fill="#000000"/><text fill="#000000" font-family="sans-serif" font-size="14" lengthAdjust="spacing" textLength="91.8817" x="553.06" y="171.1619">ToolObserved</text><line style="stroke:#181818;stroke-width:0.5;" x1="525.06" x2="646.9417" y1="181.7299" y2="181.7299"/></g><!--class LoopStopped--><g class="entity" data-qualified-name="harness.events.LoopStopped" data-source-line="18" id="ent0007"><rect fill="#F1F1F1" height="40" rx="2.5" ry="2.5" style="stroke:#181818;stroke-width:0.5;" width="119.8217" x="683.09" y="149.7299"/><ellipse cx="698.09" cy="165.7299" fill="#ADD1B2" rx="11" ry="11" style="stroke:#181818;stroke-width:1;"/><path d="M697.5588,172.6518 Q695.8088,172.6518 694.6681,171.9174 Q693.5431,171.1674 692.9806,169.8236 Q692.4338,168.4643 692.4338,166.6674 Q692.4338,164.6361 693.09,163.183 Q693.7463,161.7299 695.0275,160.9486 Q696.3088,160.1674 698.1838,160.1674 Q699.0744,160.1674 699.7463,160.3549 Q700.4181,160.5268 701.1056,160.8705 L700.2931,162.8861 Q699.6681,162.5736 699.1213,162.4486 Q698.59,162.3236 698.1056,162.3236 Q696.9338,162.3236 696.2306,162.8549 Q695.5275,163.3861 695.2306,164.3393 Q694.9338,165.2924 694.9338,166.558 Q694.9338,168.5736 695.6525,169.5424 Q696.3713,170.4955 697.965,170.4955 Q698.5588,170.4955 699.1838,170.3393 Q699.8088,170.183 700.6369,169.808 L700.6369,172.0268 Q699.9025,172.3393 699.1056,172.4955 Q698.3244,172.6518 697.5588,172.6518 Z " fill="#000000"/><text fill="#000000" font-family="sans-serif" font-size="14" lengthAdjust="spacing" textLength="87.8217" x="712.09" y="171.1619">LoopStopped</text><line style="stroke:#181818;stroke-width:0.5;" x1="684.09" x2="801.9117" y1="181.7299" y2="181.7299"/></g><!--class SpanData--><g class="entity" data-qualified-name="observability.spans .pure..SpanData" data-source-line="22" id="ent0009"><rect fill="#F1F1F1" height="59.0679" rx="2.5" ry="2.5" style="stroke:#181818;stroke-width:0.5;" width="140.2536" x="954.87" y="403.2899"/><ellipse cx="989.8814" cy="419.2899" fill="#ADD1B2" rx="11" ry="11" style="stroke:#181818;stroke-width:1;"/><path d="M989.3502,426.2118 Q987.6002,426.2118 986.4595,425.4774 Q985.3345,424.7274 984.772,423.3836 Q984.2252,422.0243 984.2252,420.2274 Q984.2252,418.1961 984.8814,416.743 Q985.5377,415.2899 986.8189,414.5086 Q988.1002,413.7274 989.9752,413.7274 Q990.8658,413.7274 991.5377,413.9149 Q992.2095,414.0868 992.897,414.4305 L992.0845,416.4461 Q991.4595,416.1336 990.9127,416.0086 Q990.3814,415.8836 989.897,415.8836 Q988.7252,415.8836 988.022,416.4149 Q987.3189,416.9461 987.022,417.8993 Q986.7252,418.8524 986.7252,420.118 Q986.7252,422.1336 987.4439,423.1024 Q988.1627,424.0555 989.7564,424.0555 Q990.3502,424.0555 990.9752,423.8993 Q991.6002,423.743 992.4283,423.368 L992.4283,425.5868 Q991.6939,425.8993 990.897,426.0555 Q990.1158,426.2118 989.3502,426.2118 Z " fill="#000000"/><text fill="#000000" font-family="sans-serif" font-size="14" lengthAdjust="spacing" textLength="63.7838" x="1008.3284" y="424.7219">SpanData</text><line style="stroke:#181818;stroke-width:0.5;" x1="955.87" x2="1094.1236" y1="435.2899" y2="435.2899"/><g data-visibility-modifier="PUBLIC_FIELD"><ellipse cx="965.87" cy="450.3239" fill="none" rx="3" ry="3" style="stroke:#038048;stroke-width:1;"/></g><text fill="#000000" font-family="sans-serif" font-size="14" lengthAdjust="spacing" textLength="114.2536" x="974.87" y="454.2558">name / attributes</text></g><!--class LlmSpan--><g class="entity" data-qualified-name="observability.spans .pure..LlmSpan" data-source-line="25" id="ent0011"><rect fill="#F1F1F1" height="40" rx="2.5" ry="2.5" style="stroke:#181818;stroke-width:0.5;" width="98.7517" x="906.62" y="291.7299"/><ellipse cx="921.62" cy="307.7299" fill="#ADD1B2" rx="11" ry="11" style="stroke:#181818;stroke-width:1;"/><path d="M921.0888,314.6518 Q919.3388,314.6518 918.1981,313.9174 Q917.0731,313.1674 916.5106,311.8236 Q915.9638,310.4643 915.9638,308.6674 Q915.9638,306.6361 916.62,305.183 Q917.2763,303.7299 918.5575,302.9486 Q919.8388,302.1674 921.7138,302.1674 Q922.6044,302.1674 923.2763,302.3549 Q923.9481,302.5268 924.6356,302.8705 L923.8231,304.8861 Q923.1981,304.5736 922.6513,304.4486 Q922.12,304.3236 921.6356,304.3236 Q920.4638,304.3236 919.7606,304.8549 Q919.0575,305.3861 918.7606,306.3393 Q918.4638,307.2924 918.4638,308.558 Q918.4638,310.5736 919.1825,311.5424 Q919.9013,312.4955 921.495,312.4955 Q922.0888,312.4955 922.7138,312.3393 Q923.3388,312.183 924.1669,311.808 L924.1669,314.0268 Q923.4325,314.3393 922.6356,314.4955 Q921.8544,314.6518 921.0888,314.6518 Z " fill="#000000"/><text fill="#000000" font-family="sans-serif" font-size="14" lengthAdjust="spacing" textLength="66.7517" x="935.62" y="313.1619">llm_span()</text><line style="stroke:#181818;stroke-width:0.5;" x1="907.62" x2="1004.3717" y1="323.7299" y2="323.7299"/></g><!--class ToolSpan--><g class="entity" data-qualified-name="observability.spans .pure..ToolSpan" data-source-line="26" id="ent0012"><rect fill="#F1F1F1" height="40" rx="2.5" ry="2.5" style="stroke:#181818;stroke-width:0.5;" width="104.0437" x="1039.98" y="291.7299"/><ellipse cx="1054.98" cy="307.7299" fill="#ADD1B2" rx="11" ry="11" style="stroke:#181818;stroke-width:1;"/><path d="M1054.4488,314.6518 Q1052.6988,314.6518 1051.5581,313.9174 Q1050.4331,313.1674 1049.8706,311.8236 Q1049.3238,310.4643 1049.3238,308.6674 Q1049.3238,306.6361 1049.98,305.183 Q1050.6363,303.7299 1051.9175,302.9486 Q1053.1988,302.1674 1055.0738,302.1674 Q1055.9644,302.1674 1056.6363,302.3549 Q1057.3081,302.5268 1057.9956,302.8705 L1057.1831,304.8861 Q1056.5581,304.5736 1056.0113,304.4486 Q1055.48,304.3236 1054.9956,304.3236 Q1053.8238,304.3236 1053.1206,304.8549 Q1052.4175,305.3861 1052.1206,306.3393 Q1051.8238,307.2924 1051.8238,308.558 Q1051.8238,310.5736 1052.5425,311.5424 Q1053.2613,312.4955 1054.855,312.4955 Q1055.4488,312.4955 1056.0738,312.3393 Q1056.6988,312.183 1057.5269,311.808 L1057.5269,314.0268 Q1056.7925,314.3393 1055.9956,314.4955 Q1055.2144,314.6518 1054.4488,314.6518 Z " fill="#000000"/><text fill="#000000" font-family="sans-serif" font-size="14" lengthAdjust="spacing" textLength="72.0437" x="1068.98" y="313.1619">tool_span()</text><line style="stroke:#181818;stroke-width:0.5;" x1="1040.98" x2="1143.0237" y1="323.7299" y2="323.7299"/></g><!--class Handler--><g class="entity" data-qualified-name="observability.phoenix .boundary..Handler" data-source-line="30" id="ent0014"><rect fill="#F1F1F1" height="40" rx="2.5" ry="2.5" style="stroke:#181818;stroke-width:0.5;" width="115.3277" x="1247.34" y="291.7299"/><ellipse cx="1262.34" cy="307.7299" fill="#B4A7E5" rx="11" ry="11" style="stroke:#181818;stroke-width:1;"/><path d="M1258.3713,314.2299 L1258.3713,312.5268 L1260.7306,312.2611 L1260.7306,304.058 L1258.3713,303.7924 L1258.3713,302.0893 L1265.5119,302.0893 L1265.5119,303.7924 L1263.09,304.058 L1263.09,312.2611 L1265.5119,312.5268 L1265.5119,314.2299 L1258.3713,314.2299 Z " fill="#000000"/><text fill="#000000" font-family="sans-serif" font-size="14" font-style="italic" lengthAdjust="spacing" textLength="83.3277" x="1276.34" y="313.1619">EventHandler</text><line style="stroke:#181818;stroke-width:0.5;" x1="1248.34" x2="1361.6677" y1="323.7299" y2="323.7299"/></g><!--class PhoenixTracer--><g class="entity" data-qualified-name="observability.phoenix .boundary..PhoenixTracer" data-source-line="31" id="ent0015"><rect fill="#F1F1F1" height="78.1358" rx="2.5" ry="2.5" style="stroke:#181818;stroke-width:0.5;" width="209.8333" x="1200.08" y="130.6699"/><ellipse cx="1253.2588" cy="146.6699" fill="#ADD1B2" rx="11" ry="11" style="stroke:#181818;stroke-width:1;"/><path d="M1252.7276,153.5918 Q1250.9776,153.5918 1249.8369,152.8574 Q1248.7119,152.1074 1248.1494,150.7636 Q1247.6026,149.4043 1247.6026,147.6074 Q1247.6026,145.5761 1248.2588,144.123 Q1248.9151,142.6699 1250.1963,141.8886 Q1251.4776,141.1074 1253.3526,141.1074 Q1254.2432,141.1074 1254.9151,141.2949 Q1255.5869,141.4668 1256.2744,141.8105 L1255.4619,143.8261 Q1254.8369,143.5136 1254.2901,143.3886 Q1253.7588,143.2636 1253.2744,143.2636 Q1252.1026,143.2636 1251.3994,143.7949 Q1250.6963,144.3261 1250.3994,145.2793 Q1250.1026,146.2324 1250.1026,147.498 Q1250.1026,149.5136 1250.8213,150.4824 Q1251.5401,151.4355 1253.1338,151.4355 Q1253.7276,151.4355 1254.3526,151.2793 Q1254.9776,151.123 1255.8057,150.748 L1255.8057,152.9668 Q1255.0713,153.2793 1254.2744,153.4355 Q1253.4932,153.5918 1252.7276,153.5918 Z " fill="#000000"/><text fill="#000000" font-family="sans-serif" font-size="14" lengthAdjust="spacing" textLength="94.9756" x="1273.7588" y="152.1019">PhoenixTracer</text><line style="stroke:#181818;stroke-width:0.5;" x1="1201.08" x2="1408.9133" y1="162.6699" y2="162.6699"/><text fill="#000000" font-family="sans-serif" font-size="14" lengthAdjust="spacing" textLength="163.0854" x="1206.08" y="181.6358">pairs start+end by call_id</text><text fill="#000000" font-family="sans-serif" font-size="14" lengthAdjust="spacing" textLength="197.8333" x="1206.08" y="200.7038">only principal's stop ends root</text></g><g class="entity" data-qualified-name="GMN24" data-source-line="48" id="ent0025"><path d="M1466.22,280.1699 L1466.22,343.2879 L1689.7875,343.2879 L1689.7875,290.1699 L1679.7875,280.1699 L1466.22,280.1699" fill="#FEFFDD" style="stroke:#181818;stroke-width:0.5;"/><path d="M1679.7875,280.1699 L1679.7875,290.1699 L1689.7875,290.1699 L1679.7875,280.1699" fill="#FEFFDD" style="stroke:#181818;stroke-width:1;"/><text fill="#000000" font-family="sans-serif" font-size="13" lengthAdjust="spacing" textLength="111.8911" x="1472.22" y="299.0669">agent.run (CHAIN)</text><text fill="#000000" font-family="sans-serif" font-size="13" lengthAdjust="spacing" textLength="199.1875" x="1475.6" y="316.7729">&#9500;&#9472; llm &lt;model&gt;   (per model call)</text><text fill="#000000" font-family="sans-serif" font-size="13" lengthAdjust="spacing" textLength="185.2905" x="1475.6" y="334.4789">&#9492;&#9472; tool &lt;name&gt;   (per tool call)</text></g><!--link LlmSpan to SpanData--><g class="link" data-entity-1="ent0011" data-entity-2="ent0009" data-link-type="dependency" data-source-line="37" id="lnk16"><path codeLine="37" d="M980.12,331.9999 C980.12,351.3899 980.12,375.8699 980.12,397.9499" fill="none" id="LlmSpan-to-SpanData" style="stroke:#181818;stroke-width:1;stroke-dasharray:7,7;"/><polygon fill="#181818" points="980.12,402.9499,984.12,393.9499,980.12,397.9499,976.12,393.9499,980.12,402.9499" style="stroke:#181818;stroke-width:1;stroke-linejoin:miter;stroke-miterlimit:10;"/></g><!--link ToolSpan to SpanData--><g class="link" data-entity-1="ent0012" data-entity-2="ent0009" data-link-type="dependency" data-source-line="38" id="lnk17"><path codeLine="38" d="M1067.55,331.9999 C1067.55,351.3899 1067.55,375.8699 1067.55,397.9499" fill="none" id="ToolSpan-to-SpanData" style="stroke:#181818;stroke-width:1;stroke-dasharray:7,7;"/><polygon fill="#181818" points="1067.55,402.9499,1071.55,393.9499,1067.55,397.9499,1063.55,393.9499,1067.55,402.9499" style="stroke:#181818;stroke-width:1;stroke-linejoin:miter;stroke-miterlimit:10;"/></g><!--link ModelCompleted to LlmSpan--><g class="link" data-entity-1="ent0004" data-entity-2="ent0011" data-link-type="dependency" data-source-line="39" id="lnk18"><path codeLine="39" d="M268,190.0199 C268,229.1899 268,311.3599 268,311.3599 C268,311.3599 743.21,311.3599 901.24,311.3599" fill="none" id="ModelCompleted-to-LlmSpan" style="stroke:#181818;stroke-width:1;stroke-dasharray:7,7;"/><polygon fill="#181818" points="906.24,311.3599,897.24,307.3599,901.24,311.3599,897.24,315.3599,906.24,311.3599" style="stroke:#181818;stroke-width:1;stroke-linejoin:miter;stroke-miterlimit:10;"/></g><!--link ToolObserved to ToolSpan--><g class="link" data-entity-1="ent0006" data-entity-2="ent0012" data-link-type="dependency" data-source-line="40" id="lnk19"><path codeLine="40" d="M586,190.1799 C586,193.7599 586,196.3599 586,196.3599 C586,196.3599 1092,196.3599 1092,196.3599 C1092,196.3599 1092,253.2499 1092,286.3699" fill="none" id="ToolObserved-to-ToolSpan" style="stroke:#181818;stroke-width:1;stroke-dasharray:7,7;"/><polygon fill="#181818" points="1092,291.3699,1096,282.3699,1092,286.3699,1088,282.3699,1092,291.3699" style="stroke:#181818;stroke-width:1;stroke-linejoin:miter;stroke-miterlimit:10;"/></g><!--link PhoenixTracer to Handler--><g class="link" data-entity-1="ent0015" data-entity-2="ent0014" data-link-type="extension" data-source-line="42" id="lnk20"><path codeLine="42" d="M1305,209.2899 C1305,236.0399 1305,252.2599 1305,273.5899" fill="none" id="PhoenixTracer-to-Handler" style="stroke:#181818;stroke-width:1;stroke-dasharray:7,7;"/><polygon fill="none" points="1305,291.5899,1311,273.5899,1299,273.5899,1305,291.5899" style="stroke:#181818;stroke-width:1;stroke-linejoin:miter;stroke-miterlimit:10;"/></g><!--link PhoenixTracer to LlmSpan--><g class="link" data-entity-1="ent0015" data-entity-2="ent0011" data-link-type="dependency" data-source-line="43" id="lnk21"><path codeLine="43" d="M1199.82,202.3599 C1097.05,202.3599 956,202.3599 956,202.3599 C956,202.3599 956,254.7899 956,286.4199" fill="none" id="PhoenixTracer-to-LlmSpan" style="stroke:#181818;stroke-width:1;stroke-dasharray:7,7;"/><polygon fill="#181818" points="956,291.4199,960,282.4199,956,286.4199,952,282.4199,956,291.4199" style="stroke:#181818;stroke-width:1;stroke-linejoin:miter;stroke-miterlimit:10;"/></g><!--link PhoenixTracer to ToolSpan--><g class="link" data-entity-1="ent0015" data-entity-2="ent0012" data-link-type="dependency" data-source-line="44" id="lnk22"><path codeLine="44" d="M1223.71,209.1799 C1223.71,251.0899 1223.71,311.3599 1223.71,311.3599 C1223.71,311.3599 1186.16,311.3599 1149.43,311.3599" fill="none" id="PhoenixTracer-to-ToolSpan" style="stroke:#181818;stroke-width:1;stroke-dasharray:7,7;"/><polygon fill="#181818" points="1144.43,311.3599,1153.43,315.3599,1149.43,311.3599,1153.43,307.3599,1144.43,311.3599" style="stroke:#181818;stroke-width:1;stroke-linejoin:miter;stroke-miterlimit:10;"/></g><!--link PhoenixTracer to LoopStopped--><g class="link" data-entity-1="ent0015" data-entity-2="ent0007" data-link-type="dependency" data-source-line="45" id="lnk23"><path codeLine="45" d="M1199.62,169.3599 C1082.66,169.3599 902.94,169.3599 808.29,169.3599" fill="none" id="PhoenixTracer-to-LoopStopped" style="stroke:#181818;stroke-width:1;stroke-dasharray:7,7;"/><polygon fill="#181818" points="803.29,169.3599,812.29,173.3599,808.29,169.3599,812.29,165.3599,803.29,169.3599" style="stroke:#181818;stroke-width:1;stroke-linejoin:miter;stroke-miterlimit:10;"/><text fill="#000000" font-family="sans-serif" font-size="13" lengthAdjust="spacing" textLength="85.0071" x="915.45" y="165.2569">close run root</text></g><!--link PhoenixTracer to GMN24--><g class="link" data-entity-1="ent0015" data-entity-2="ent0025" data-link-type="association" data-source-line="48" id="lnk26"><path d="M1386.29,209.2199 C1386.29,243.0499 1386.29,286.3599 1386.29,286.3599 C1386.29,286.3599 1423.97,286.3599 1465.93,286.3599" fill="none" id="PhoenixTracer-GMN24" style="stroke:#181818;stroke-width:1;stroke-dasharray:7,7;"/></g><g class="legend" data-source-line="6"><rect fill="#DDDDDD" height="86.2717" rx="7.5" ry="7.5" style="stroke:#000000;stroke-width:1;" width="279.7369" x="12" y="523.3599"/><text fill="#000000" font-family="sans-serif" font-size="14" lengthAdjust="spacing" textLength="123.0455" x="17" y="543.3258">..&gt; uses / produces</text><text fill="#000000" font-family="sans-serif" font-size="14" lengthAdjust="spacing" textLength="105.0836" x="17" y="562.3938">..|&gt; implements</text><text fill="#000000" font-family="sans-serif" font-size="14" lengthAdjust="spacing" textLength="255.961" x="17" y="581.4617">spans.py has NO external dependency;</text><text fill="#000000" font-family="sans-serif" font-size="14" lengthAdjust="spacing" textLength="269.7369" x="17" y="600.5296">only phoenix.py touches OpenTelemetry.</text></g><?plantuml-src TLF1Rjim3BthAuXSbYA0Tz-A04Cte0MwPa1pBnYRYON8aY3HGOsjG3yYntrTlcIKdAHnakbaypq-aOyKQpO4RX4fR72XZUOETkzRy6qWQD1xRLSm0GIkjONPd0miN6ih39rISQsjnu0D66s9EozAWMkdQbqHKED5h249L54fGoko5HXQiW8eYYcqaI9y1XzSrPOKS_JF57JZ3JLaEKMYHniBtq6D4PvcGAzCmQA1Yhp8aIsxhq9prdJWQqTMloOskxQiHNqc9AbPv3XqXPAClWobF9PhN16CQWoMOYneawuSmM-HwqzfC4RuwIeoTsWCLLSHbyhb2t3kd7cm6xU-YioouHVGetF-cPttWhoTr3YOJv4zWN4QqSrblS-2VaV64-1m9XOR4iUHEUX5ozdp_hoTgOoCQLxIHMEvGgn_D4qIFcUnz79AIxrbtl-htqy9neSz6lIWhSntYQMa_KW3kSSqif35zzzdDVpgzUP1aiALfZtg424o1fwa1LnqKCeqNtHrGUstA6XRQe_cKyfo7YGfGd2EJyoIzlQEv4q-UAuE_G-ZmqN9sC7FqsN8mD51DMmiFus30-VGXzubSXIyalInRl15x7IH8BIsRrPPnoIFdTaru9P3dyKA6Qtb8j77T_VV7fvkaZsxxT_TzXraUU2sILrF9JZsSb_-oyxlYTj4JFi3jsajZyGSwdbfNAaAzGy0?></g></svg>