<svg xmlns="http://www.w3.org/2000/svg" xmlns:xlink="http://www.w3.org/1999/xlink" contentStyleType="text/css" data-diagram-type="DESCRIPTION" height="1010px" preserveAspectRatio="none" style="width:1481px;height:1010px;background:#FFFFFF;" version="1.1" viewBox="0 0 1481 1010" width="1481px" zoomAndPan="magnify"><?plantuml $version$?><defs/><g><g class="title" data-source-line="1"><text fill="#000000" font-family="sans-serif" font-size="14" font-weight="700" lengthAdjust="spacing" textLength="284.0308" x="595.2196" y="24.9659">Advanced Agent - Runtime Collaboration</text></g><!--cluster Loop core--><g class="cluster" data-qualified-name="Loop core" data-source-line="30" id="ent0002"><path d="M167.66,443.7579 L237.0637,443.7579 A3.75,3.75 0 0 1 239.5637,446.2579 L246.5637,468.8258 L868.49,468.8258 A2.5,2.5 0 0 1 870.99,471.3258 L870.99,683.2579 A2.5,2.5 0 0 1 868.49,685.7579 L167.66,685.7579 A2.5,2.5 0 0 1 165.16,683.2579 L165.16,446.2579 A2.5,2.5 0 0 1 167.66,443.7579" fill="#FFFFFF" style="stroke:#CBD5E1;stroke-width:1.5;"/><line style="stroke:#CBD5E1;stroke-width:1.5;" x1="165.16" x2="246.5637" y1="468.8258" y2="468.8258"/><text fill="#000000" font-family="sans-serif" font-size="14" font-weight="700" lengthAdjust="spacing" textLength="68.4037" x="169.16" y="460.7239">Loop core</text></g><!--cluster Runtime state--><g class="cluster" data-qualified-name="Runtime state" data-source-line="39" id="ent0009"><path d="M711.01,325.7579 L811.2276,325.7579 A3.75,3.75 0 0 1 813.7276,328.2579 L820.7276,350.8258 L1111.89,350.8258 A2.5,2.5 0 0 1 1114.39,353.3258 L1114.39,417.2579 A2.5,2.5 0 0 1 1111.89,419.7579 L711.01,419.7579 A2.5,2.5 0 0 1 708.51,417.2579 L708.51,328.2579 A2.5,2.5 0 0 1 711.01,325.7579" fill="#FFFFFF" style="stroke:#CBD5E1;stroke-width:1.5;"/><line style="stroke:#CBD5E1;stroke-width:1.5;" x1="708.51" x2="820.7276" y1="350.8258" y2="350.8258"/><text fill="#000000" font-family="sans-serif" font-size="14" font-weight="700" lengthAdjust="spacing" textLength="99.2176" x="712.51" y="342.7239">Runtime state</text></g><!--cluster External ports--><g class="cluster" data-qualified-name="External ports" data-source-line="44" id="ent0012"><path d="M745.35,709.7579 L845.2316,709.7579 A3.75,3.75 0 0 1 847.7316,712.2579 L854.7316,734.8258 L1117.79,734.8258 A2.5,2.5 0 0 1 1120.29,737.3258 L1120.29,875.2579 A2.5,2.5 0 0 1 1117.79,877.7579 L745.35,877.7579 A2.5,2.5 0 0 1 742.85,875.2579 L742.85,712.2579 A2.5,2.5 0 0 1 745.35,709.7579" fill="#FFFFFF" style="stroke:#CBD5E1;stroke-width:1.5;"/><line style="stroke:#CBD5E1;stroke-width:1.5;" x1="742.85" x2="854.7316" y1="734.8258" y2="734.8258"/><text fill="#000000" font-family="sans-serif" font-size="14" font-weight="700" lengthAdjust="spacing" textLength="98.8816" x="746.85" y="726.7239">External ports</text></g><!--cluster Observability--><g class="cluster" data-qualified-name="Observability" data-source-line="51" id="ent0017"><path d="M996.44,901.7579 L1090.8477,901.7579 A3.75,3.75 0 0 1 1093.3477,904.2579 L1100.3477,926.8258 L1463.97,926.8258 A2.5,2.5 0 0 1 1466.47,929.3258 L1466.47,993.2579 A2.5,2.5 0 0 1 1463.97,995.7579 L996.44,995.7579 A2.5,2.5 0 0 1 993.94,993.2579 L993.94,904.2579 A2.5,2.5 0 0 1 996.44,901.7579" fill="#FFFFFF" style="stroke:#CBD5E1;stroke-width:1.5;"/><line style="stroke:#CBD5E1;stroke-width:1.5;" x1="993.94" x2="1100.3477" y1="926.8258" y2="926.8258"/><text fill="#000000" font-family="sans-serif" font-size="14" font-weight="700" lengthAdjust="spacing" textLength="93.4077" x="997.94" y="918.7239">Observability</text></g><!--entity Loop--><g class="entity" data-qualified-name="Loop core.Loop" data-source-line="31" id="ent0003"><rect fill="#F7F8FC" height="39.0679" rx="4" ry="4" style="stroke:#6B7280;stroke-width:0.5;" width="92.0437" x="181.16" y="598.2279"/><text fill="#000000" font-family="sans-serif" font-size="14" lengthAdjust="spacing" textLength="72.0437" x="191.16" y="623.1939">AgentLoop</text></g><!--entity Navigator--><g class="entity" data-qualified-name="Loop core.Navigator" data-source-line="32" id="ent0004"><rect fill="#F7F8FC" height="39.0679" rx="4" ry="4" style="stroke:#6B7280;stroke-width:0.5;" width="84.9878" x="377.63" y="561.2279"/><text fill="#000000" font-family="sans-serif" font-size="14" lengthAdjust="spacing" textLength="64.9878" x="387.63" y="586.1939">Navigator</text></g><!--entity Reason--><g class="entity" data-qualified-name="Loop core.Reason" data-source-line="33" id="ent0005"><rect fill="#F7F8FC" height="39.0679" rx="4" ry="4" style="stroke:#6B7280;stroke-width:0.5;" width="107.8637" x="538.81" y="630.2279"/><text fill="#000000" font-family="sans-serif" font-size="14" lengthAdjust="spacing" textLength="87.8637" x="548.81" y="655.1939">ReasonPhase</text></g><!--entity Action--><g class="entity" data-qualified-name="Loop core.Action" data-source-line="34" id="ent0006"><rect fill="#F7F8FC" height="39.0679" rx="4" ry="4" style="stroke:#6B7280;stroke-width:0.5;" width="101.0317" x="542.23" y="482.2279"/><text fill="#000000" font-family="sans-serif" font-size="14" lengthAdjust="spacing" textLength="81.0317" x="552.23" y="507.1939">ActionPhase</text></g><!--entity Observe--><g class="entity" data-qualified-name="Loop core.Observe" data-source-line="35" id="ent0007"><rect fill="#F7F8FC" height="39.0679" rx="4" ry="4" style="stroke:#6B7280;stroke-width:0.5;" width="140.2596" x="522.62" y="556.2279"/><text fill="#000000" font-family="sans-serif" font-size="14" lengthAdjust="spacing" textLength="120.2596" x="532.62" y="581.1939">ObservationPhase</text></g><!--entity Controller--><g class="entity" data-qualified-name="Loop core.Controller" data-source-line="36" id="ent0008"><rect fill="#F7F8FC" height="39.0679" rx="4" ry="4" style="stroke:#6B7280;stroke-width:0.5;" width="86.1777" x="768.81" y="556.2279"/><text fill="#000000" font-family="sans-serif" font-size="14" lengthAdjust="spacing" textLength="66.1777" x="778.81" y="581.1939">Controller</text></g><!--entity Context--><g class="entity" data-qualified-name="Runtime state.Context" data-source-line="40" id="ent0010"><rect fill="#F7F8FC" height="39.0679" rx="4" ry="4" style="stroke:#6B7280;stroke-width:0.5;" width="174.7834" x="724.51" y="364.2279"/><text fill="#000000" font-family="sans-serif" font-size="14" lengthAdjust="spacing" textLength="154.7834" x="734.51" y="389.1939">AgentExecutionContext</text></g><!--entity Ledger--><g class="entity" data-qualified-name="Runtime state.Ledger" data-source-line="41" id="ent0011"><rect fill="#F7F8FC" height="39.0679" rx="4" ry="4" style="stroke:#6B7280;stroke-width:0.5;" width="95.9497" x="1002.44" y="364.2279"/><text fill="#000000" font-family="sans-serif" font-size="14" lengthAdjust="spacing" textLength="75.9497" x="1012.44" y="389.1939">TaskLedger</text></g><!--entity Model--><g class="entity" data-qualified-name="External ports.Model" data-source-line="45" id="ent0013"><rect fill="#F7F8FC" height="39.0679" rx="4" ry="4" style="stroke:#6B7280;stroke-width:0.5;" width="91.6937" x="766.05" y="822.2279"/><text fill="#000000" font-family="sans-serif" font-size="14" lengthAdjust="spacing" textLength="71.6937" x="776.05" y="847.1939">ChatModel</text></g><!--entity Executor--><g class="entity" data-qualified-name="External ports.Executor" data-source-line="46" id="ent0014"><rect fill="#F7F8FC" height="39.0679" rx="4" ry="4" style="stroke:#6B7280;stroke-width:0.5;" width="106.0997" x="758.85" y="748.2279"/><text fill="#000000" font-family="sans-serif" font-size="14" lengthAdjust="spacing" textLength="86.0997" x="768.85" y="773.1939">ToolExecutor</text></g><!--entity Approver--><g class="entity" data-qualified-name="External ports.Approver" data-source-line="47" id="ent0015"><rect fill="#F7F8FC" height="39.0679" rx="4" ry="4" style="stroke:#6B7280;stroke-width:0.5;" width="81.2078" x="1009.81" y="822.2279"/><text fill="#000000" font-family="sans-serif" font-size="14" lengthAdjust="spacing" textLength="61.2078" x="1019.81" y="847.1939">Approver</text></g><!--entity Tool--><g class="entity" data-qualified-name="External ports.Tool" data-source-line="48" id="ent0016"><rect fill="#F7F8FC" height="39.0679" rx="4" ry="4" style="stroke:#6B7280;stroke-width:0.5;" width="107.7517" x="996.54" y="748.2279"/><text fill="#000000" font-family="sans-serif" font-size="14" lengthAdjust="spacing" textLength="87.7517" x="1006.54" y="773.1939">ToolInterface</text></g><!--entity Bus--><g class="entity" data-qualified-name="Observability.Bus" data-source-line="52" id="ent0018"><rect fill="#F7F8FC" height="39.0679" rx="4" ry="4" style="stroke:#6B7280;stroke-width:0.5;" width="80.9557" x="1009.94" y="940.2279"/><text fill="#000000" font-family="sans-serif" font-size="14" lengthAdjust="spacing" textLength="60.9557" x="1019.94" y="965.1939">EventBus</text></g><!--entity Progress--><g class="entity" data-qualified-name="Observability.Progress" data-source-line="53" id="ent0019"><rect fill="#F7F8FC" height="39.0679" rx="4" ry="4" style="stroke:#6B7280;stroke-width:0.5;" width="109.3337" x="1199.91" y="940.2279"/><text fill="#000000" font-family="sans-serif" font-size="14" lengthAdjust="spacing" textLength="89.3337" x="1209.91" y="965.1939">ProgressView</text></g><!--entity Renderer--><g class="entity" data-qualified-name="Observability.Renderer" data-source-line="54" id="ent0020"><rect fill="#F7F8FC" height="39.0679" rx="4" ry="4" style="stroke:#6B7280;stroke-width:0.5;" width="81.2218" x="1369.25" y="940.2279"/><text fill="#000000" font-family="sans-serif" font-size="14" lengthAdjust="spacing" textLength="61.2218" x="1379.25" y="965.1939">Renderer</text></g><!--entity Session--><g class="entity" data-qualified-name="Session" data-source-line="28" id="ent0001"><rect fill="#F7F8FC" height="39.0679" rx="4" ry="4" style="stroke:#6B7280;stroke-width:0.5;" width="69.7278" x="7" y="598.2279"/><text fill="#000000" font-family="sans-serif" font-size="14" lengthAdjust="spacing" textLength="49.7278" x="17" y="623.1939">Session</text></g><g class="entity" data-qualified-name="GMN42" data-source-line="81" id="ent0043"><path d="M136.73,335.8979 L136.73,427.6185 A0,0 0 0 0 136.73,427.6185 L223.47,427.6185 L227.47,598.0379 L231.47,427.6185 L317.6311,427.6185 A0,0 0 0 0 317.6311,427.6185 L317.6311,345.8979 L307.6311,335.8979 L136.73,335.8979 A0,0 0 0 0 136.73,335.8979" fill="#FFF8D6" style="stroke:#D1A02A;stroke-width:0.5;"/><path d="M307.6311,335.8979 L307.6311,345.8979 L317.6311,345.8979 L307.6311,335.8979" fill="#FFF8D6" style="stroke:#D1A02A;stroke-width:0.5;"/><text fill="#000000" font-family="sans-serif" font-size="12" lengthAdjust="spacing" textLength="6.864" x="142.73" y="353.726">1</text><text fill="#000000" font-family="sans-serif" font-size="12" lengthAdjust="spacing" textLength="3.12" x="149.594" y="353.726">&#160;</text><text fill="#000000" font-family="sans-serif" font-size="12" lengthAdjust="spacing" textLength="42.6243" x="152.7141" y="353.726">Session</text><text fill="#000000" font-family="sans-serif" font-size="12" lengthAdjust="spacing" textLength="3.12" x="195.3384" y="353.726">&#160;</text><text fill="#000000" font-family="sans-serif" font-size="12" lengthAdjust="spacing" textLength="31.8482" x="198.4584" y="353.726">starts</text><text fill="#000000" font-family="sans-serif" font-size="12" lengthAdjust="spacing" textLength="3.12" x="230.3066" y="353.726">&#160;</text><text fill="#000000" font-family="sans-serif" font-size="12" lengthAdjust="spacing" textLength="69.2045" x="233.4267" y="353.726">run(context)</text><text fill="#000000" font-family="sans-serif" font-size="12" lengthAdjust="spacing" textLength="54.5764" x="151.9401" y="370.0701">2/6/10/13</text><text fill="#000000" font-family="sans-serif" font-size="12" lengthAdjust="spacing" textLength="3.12" x="206.5164" y="370.0701">&#160;</text><text fill="#000000" font-family="sans-serif" font-size="12" lengthAdjust="spacing" textLength="46.6203" x="209.6365" y="370.0701">selected</text><text fill="#000000" font-family="sans-serif" font-size="12" lengthAdjust="spacing" textLength="3.12" x="256.2568" y="370.0701">&#160;</text><text fill="#000000" font-family="sans-serif" font-size="12" lengthAdjust="spacing" textLength="34.0442" x="259.3768" y="370.0701">phase</text><text fill="#000000" font-family="sans-serif" font-size="12" lengthAdjust="spacing" textLength="25.5362" x="209.9125" y="386.4142">runs</text><text fill="#000000" font-family="sans-serif" font-size="12" lengthAdjust="spacing" textLength="6.864" x="167.4802" y="402.7583">5</text><text fill="#000000" font-family="sans-serif" font-size="12" lengthAdjust="spacing" textLength="3.12" x="174.3442" y="402.7583">&#160;</text><text fill="#000000" font-family="sans-serif" font-size="12" lengthAdjust="spacing" textLength="55.7044" x="177.4642" y="402.7583">Navigator</text><text fill="#000000" font-family="sans-serif" font-size="12" lengthAdjust="spacing" textLength="3.12" x="233.1686" y="402.7583">&#160;</text><text fill="#000000" font-family="sans-serif" font-size="12" lengthAdjust="spacing" textLength="41.5923" x="236.2887" y="402.7583">returns</text><text fill="#000000" font-family="sans-serif" font-size="12" lengthAdjust="spacing" textLength="51.2884" x="176.2822" y="419.1025">Continue</text><text fill="#000000" font-family="sans-serif" font-size="12" lengthAdjust="spacing" textLength="3.12" x="227.5706" y="419.1025">&#160;</text><text fill="#000000" font-family="sans-serif" font-size="12" lengthAdjust="spacing" textLength="12.2161" x="230.6906" y="419.1025">or</text><text fill="#000000" font-family="sans-serif" font-size="12" lengthAdjust="spacing" textLength="3.12" x="242.9067" y="419.1025">&#160;</text><text fill="#000000" font-family="sans-serif" font-size="12" lengthAdjust="spacing" textLength="23.0522" x="246.0267" y="419.1025">Halt</text></g><g class="entity" data-qualified-name="GMN45" data-source-line="87" id="ent0046"><path d="M724.19,250.2379 L724.19,309.2703 L899.6071,309.2703 L899.6071,260.2379 L889.6071,250.2379 L724.19,250.2379" fill="#FFF8D6" style="stroke:#D1A02A;stroke-width:0.5;"/><path d="M889.6071,250.2379 L889.6071,260.2379 L899.6071,260.2379 L889.6071,250.2379" fill="#FFF8D6" style="stroke:#D1A02A;stroke-width:1;"/><text fill="#000000" font-family="sans-serif" font-size="12" lengthAdjust="spacing" textLength="6.864" x="735.3561" y="268.066">3</text><text fill="#000000" font-family="sans-serif" font-size="12" lengthAdjust="spacing" textLength="3.12" x="742.2201" y="268.066">&#160;</text><text fill="#000000" font-family="sans-serif" font-size="12" lengthAdjust="spacing" textLength="134.1009" x="745.3401" y="268.066">ChatModel.complete(...)</text><text fill="#000000" font-family="sans-serif" font-size="12" lengthAdjust="spacing" textLength="19.9081" x="730.19" y="284.4101">can</text><text fill="#000000" font-family="sans-serif" font-size="12" lengthAdjust="spacing" textLength="3.12" x="750.0981" y="284.4101">&#160;</text><text fill="#000000" font-family="sans-serif" font-size="12" lengthAdjust="spacing" textLength="35.8443" x="753.2182" y="284.4101">return</text><text fill="#000000" font-family="sans-serif" font-size="12" lengthAdjust="spacing" textLength="3.12" x="789.0624" y="284.4101">&#160;</text><text fill="#000000" font-family="sans-serif" font-size="12" lengthAdjust="spacing" textLength="21.9482" x="792.1824" y="284.4101">tool</text><text fill="#000000" font-family="sans-serif" font-size="12" lengthAdjust="spacing" textLength="3.12" x="814.1306" y="284.4101">&#160;</text><text fill="#000000" font-family="sans-serif" font-size="12" lengthAdjust="spacing" textLength="24.4322" x="817.2506" y="284.4101">calls</text><text fill="#000000" font-family="sans-serif" font-size="12" lengthAdjust="spacing" textLength="3.12" x="841.6828" y="284.4101">&#160;</text><text fill="#000000" font-family="sans-serif" font-size="12" lengthAdjust="spacing" textLength="12.2161" x="844.8028" y="284.4101">or</text><text fill="#000000" font-family="sans-serif" font-size="12" lengthAdjust="spacing" textLength="3.12" x="857.0189" y="284.4101">&#160;</text><text fill="#000000" font-family="sans-serif" font-size="12" lengthAdjust="spacing" textLength="24.4682" x="860.1389" y="284.4101">final</text><text fill="#000000" font-family="sans-serif" font-size="12" lengthAdjust="spacing" textLength="41.0523" x="786.8724" y="300.7542">answer</text></g><g class="entity" data-qualified-name="GMN48" data-source-line="92" id="ent0049"><path d="M722.88,156.2379 L722.88,215.2703 L900.9251,215.2703 L900.9251,166.2379 L890.9251,156.2379 L722.88,156.2379" fill="#FFF8D6" style="stroke:#D1A02A;stroke-width:0.5;"/><path d="M890.9251,156.2379 L890.9251,166.2379 L900.9251,166.2379 L890.9251,156.2379" fill="#FFF8D6" style="stroke:#D1A02A;stroke-width:1;"/><text fill="#000000" font-family="sans-serif" font-size="12" lengthAdjust="spacing" textLength="6.864" x="728.88" y="174.066">7</text><text fill="#000000" font-family="sans-serif" font-size="12" lengthAdjust="spacing" textLength="3.12" x="735.744" y="174.066">&#160;</text><text fill="#000000" font-family="sans-serif" font-size="12" lengthAdjust="spacing" textLength="147.061" x="738.8641" y="174.066">ToolExecutor.execute(call)</text><text fill="#000000" font-family="sans-serif" font-size="12" lengthAdjust="spacing" textLength="13.5961" x="735.522" y="190.4101">8a</text><text fill="#000000" font-family="sans-serif" font-size="12" lengthAdjust="spacing" textLength="3.12" x="749.1181" y="190.4101">&#160;</text><text fill="#000000" font-family="sans-serif" font-size="12" lengthAdjust="spacing" textLength="86.8086" x="752.2381" y="190.4101">policy/approval</text><text fill="#000000" font-family="sans-serif" font-size="12" lengthAdjust="spacing" textLength="3.12" x="839.0468" y="190.4101">&#160;</text><text fill="#000000" font-family="sans-serif" font-size="12" lengthAdjust="spacing" textLength="37.1163" x="842.1668" y="190.4101">review</text><text fill="#000000" font-family="sans-serif" font-size="12" lengthAdjust="spacing" textLength="14.2441" x="733.254" y="206.7542">8b</text><text fill="#000000" font-family="sans-serif" font-size="12" lengthAdjust="spacing" textLength="3.12" x="747.4981" y="206.7542">&#160;</text><text fill="#000000" font-family="sans-serif" font-size="12" lengthAdjust="spacing" textLength="21.9482" x="750.6181" y="206.7542">tool</text><text fill="#000000" font-family="sans-serif" font-size="12" lengthAdjust="spacing" textLength="3.12" x="772.5663" y="206.7542">&#160;</text><text fill="#000000" font-family="sans-serif" font-size="12" lengthAdjust="spacing" textLength="44.2803" x="775.6863" y="206.7542">adapter</text><text fill="#000000" font-family="sans-serif" font-size="12" lengthAdjust="spacing" textLength="3.12" x="819.9666" y="206.7542">&#160;</text><text fill="#000000" font-family="sans-serif" font-size="12" lengthAdjust="spacing" textLength="58.4644" x="823.0867" y="206.7542">invocation</text></g><g class="entity" data-qualified-name="GMN51" data-source-line="98" id="ent0052"><path d="M739.6,46.0679 L739.6,121.4444 L884.2009,121.4444 L884.2009,56.0679 L874.2009,46.0679 L739.6,46.0679" fill="#FFF8D6" style="stroke:#D1A02A;stroke-width:0.5;"/><path d="M874.2009,46.0679 L874.2009,56.0679 L884.2009,56.0679 L874.2009,46.0679" fill="#FFF8D6" style="stroke:#D1A02A;stroke-width:1;"/><text fill="#000000" font-family="sans-serif" font-size="12" lengthAdjust="spacing" textLength="6.864" x="754.2401" y="63.896">4</text><text fill="#000000" font-family="sans-serif" font-size="12" lengthAdjust="spacing" textLength="3.12" x="761.1041" y="63.896">&#160;</text><text fill="#000000" font-family="sans-serif" font-size="12" lengthAdjust="spacing" textLength="96.3367" x="764.2241" y="63.896">with_assistant(...)</text><text fill="#000000" font-family="sans-serif" font-size="12" lengthAdjust="spacing" textLength="6.864" x="746.512" y="80.2401">9</text><text fill="#000000" font-family="sans-serif" font-size="12" lengthAdjust="spacing" textLength="3.12" x="753.3761" y="80.2401">&#160;</text><text fill="#000000" font-family="sans-serif" font-size="12" lengthAdjust="spacing" textLength="111.7928" x="756.4961" y="80.2401">with_tool_results(...)</text><text fill="#000000" font-family="sans-serif" font-size="12" lengthAdjust="spacing" textLength="13.7281" x="769.1982" y="96.5842">12</text><text fill="#000000" font-family="sans-serif" font-size="12" lengthAdjust="spacing" textLength="3.12" x="782.9263" y="96.5842">&#160;</text><text fill="#000000" font-family="sans-serif" font-size="12" lengthAdjust="spacing" textLength="59.5564" x="786.0463" y="96.5842">observed()</text><text fill="#000000" font-family="sans-serif" font-size="12" lengthAdjust="spacing" textLength="44.0403" x="745.6" y="112.9283">Context</text><text fill="#000000" font-family="sans-serif" font-size="12" lengthAdjust="spacing" textLength="3.12" x="789.6403" y="112.9283">&#160;</text><text fill="#000000" font-family="sans-serif" font-size="12" lengthAdjust="spacing" textLength="8.8441" x="792.7603" y="112.9283">is</text><text fill="#000000" font-family="sans-serif" font-size="12" lengthAdjust="spacing" textLength="3.12" x="801.6044" y="112.9283">&#160;</text><text fill="#000000" font-family="sans-serif" font-size="12" lengthAdjust="spacing" textLength="64.4764" x="804.7244" y="112.9283">immutable.</text></g><g class="entity" data-qualified-name="GMN54" data-source-line="105" id="ent0055"><path d="M960.92,234.0679 L960.92,309.4444 L1139.9131,309.4444 L1139.9131,244.0679 L1129.9131,234.0679 L960.92,234.0679" fill="#FFF8D6" style="stroke:#D1A02A;stroke-width:0.5;"/><path d="M1129.9131,234.0679 L1129.9131,244.0679 L1139.9131,244.0679 L1129.9131,234.0679" fill="#FFF8D6" style="stroke:#D1A02A;stroke-width:1;"/><text fill="#000000" font-family="sans-serif" font-size="12" lengthAdjust="spacing" textLength="37.0323" x="967.184" y="251.896">Events</text><text fill="#000000" font-family="sans-serif" font-size="12" lengthAdjust="spacing" textLength="3.12" x="1004.2163" y="251.896">&#160;</text><text fill="#000000" font-family="sans-serif" font-size="12" lengthAdjust="spacing" textLength="40.9323" x="1007.3363" y="251.896">include</text><text fill="#000000" font-family="sans-serif" font-size="12" lengthAdjust="spacing" textLength="3.12" x="1048.2686" y="251.896">&#160;</text><text fill="#000000" font-family="sans-serif" font-size="12" lengthAdjust="spacing" textLength="73.2605" x="1051.3886" y="251.896">ModelCalled,</text><text fill="#000000" font-family="sans-serif" font-size="12" lengthAdjust="spacing" textLength="72.9005" x="966.92" y="268.2401">ToolInvoked,</text><text fill="#000000" font-family="sans-serif" font-size="12" lengthAdjust="spacing" textLength="3.12" x="1039.8205" y="268.2401">&#160;</text><text fill="#000000" font-family="sans-serif" font-size="12" lengthAdjust="spacing" textLength="81.9726" x="1042.9405" y="268.2401">ToolObserved,</text><text fill="#000000" font-family="sans-serif" font-size="12" lengthAdjust="spacing" textLength="91.1167" x="988.0342" y="284.5842">CycleCompleted</text><text fill="#000000" font-family="sans-serif" font-size="12" lengthAdjust="spacing" textLength="3.12" x="1079.1508" y="284.5842">&#160;</text><text fill="#000000" font-family="sans-serif" font-size="12" lengthAdjust="spacing" textLength="21.5281" x="1082.2708" y="284.5842">and</text><text fill="#000000" font-family="sans-serif" font-size="12" lengthAdjust="spacing" textLength="78.4926" x="1006.6703" y="300.9283">LoopStopped.</text></g><!--link Session to Loop--><g class="link" data-entity-1="ent0001" data-entity-2="ent0003" data-link-type="dependency" data-source-line="57" id="lnk21"><path d="M77.16,617.7579 C106.56,617.7579 143.67,617.7579 175.8,617.7579" fill="none" id="Session-to-Loop" style="stroke:#181818;stroke-width:1;"/><polygon fill="#181818" points="180.8,617.7579,171.8,613.7579,175.8,617.7579,171.8,621.7579,180.8,617.7579" style="stroke:#181818;stroke-width:1;stroke-linejoin:miter;stroke-miterlimit:10;"/><text fill="#000000" font-family="sans-serif" font-size="13" lengthAdjust="spacing" textLength="7.436" x="120.98" y="632.6549">1</text></g><!--link Loop to Reason--><g class="link" data-entity-1="ent0003" data-entity-2="ent0005" data-link-type="dependency" data-source-line="58" id="lnk22"><path d="M273.48,634.9379 C341.11,634.9379 461.65,634.9379 533.51,634.9379" fill="none" id="Loop-to-Reason" style="stroke:#181818;stroke-width:1;"/><polygon fill="#181818" points="538.51,634.9379,529.51,630.9379,533.51,634.9379,529.51,638.9379,538.51,634.9379" style="stroke:#181818;stroke-width:1;stroke-linejoin:miter;stroke-miterlimit:10;"/><text fill="#000000" font-family="sans-serif" font-size="13" lengthAdjust="spacing" textLength="7.436" x="397.99" y="649.8349">2</text></g><!--link Reason to Model--><g class="link" data-entity-1="ent0005" data-entity-2="ent0013" data-link-type="dependency" data-source-line="59" id="lnk23"><path d="M610.47,669.5779 C610.47,718.6379 610.47,841.7579 610.47,841.7579 C610.47,841.7579 701.22,841.7579 760.69,841.7579" fill="none" id="Reason-to-Model" style="stroke:#181818;stroke-width:1;"/><polygon fill="#181818" points="765.69,841.7579,756.69,837.7579,760.69,841.7579,756.69,845.7579,765.69,841.7579" style="stroke:#181818;stroke-width:1;stroke-linejoin:miter;stroke-miterlimit:10;"/><text fill="#000000" font-family="sans-serif" font-size="13" lengthAdjust="spacing" textLength="7.436" x="602.47" y="848.1749">3</text></g><!--link Reason to Context--><g class="link" data-entity-1="ent0005" data-entity-2="ent0010" data-link-type="dependency" data-source-line="60" id="lnk24"><path d="M646.86,649.7579 C691.48,649.7579 747.47,649.7579 747.47,649.7579 C747.47,649.7579 747.47,470.6079 747.47,408.7479" fill="none" id="Reason-to-Context" style="stroke:#181818;stroke-width:1;"/><polygon fill="#181818" points="747.47,403.7479,743.47,412.7479,747.47,408.7479,751.47,412.7479,747.47,403.7479" style="stroke:#181818;stroke-width:1;stroke-linejoin:miter;stroke-miterlimit:10;"/><text fill="#000000" font-family="sans-serif" font-size="13" lengthAdjust="spacing" textLength="7.436" x="739.47" y="591.9549">4</text></g><!--link Loop to Navigator--><g class="link" data-entity-1="ent0003" data-entity-2="ent0004" data-link-type="dependency" data-source-line="61" id="lnk25"><path d="M273.56,615.2579 C326.38,615.2579 405.47,615.2579 405.47,615.2579 C405.47,615.2579 405.47,613.1779 405.47,605.4279" fill="none" id="Loop-to-Navigator" style="stroke:#181818;stroke-width:1;"/><polygon fill="#181818" points="405.47,600.4279,401.47,609.4279,405.47,605.4279,409.47,609.4279,405.47,600.4279" style="stroke:#181818;stroke-width:1;stroke-linejoin:miter;stroke-miterlimit:10;"/><text fill="#000000" font-family="sans-serif" font-size="13" lengthAdjust="spacing" textLength="7.436" x="338.93" y="630.1549">5</text></g><!--link Navigator to Action--><g class="link" data-entity-1="ent0004" data-entity-2="ent0006" data-link-type="dependency" data-source-line="62" id="lnk26"><path d="M420.47,560.8179 C420.47,537.4179 420.47,501.7579 420.47,501.7579 C420.47,501.7579 486.17,501.7579 536.99,501.7579" fill="none" id="Navigator-to-Action" style="stroke:#181818;stroke-width:1;"/><polygon fill="#181818" points="541.99,501.7579,532.99,497.7579,536.99,501.7579,532.99,505.7579,541.99,501.7579" style="stroke:#181818;stroke-width:1;stroke-linejoin:miter;stroke-miterlimit:10;"/><text fill="#000000" font-family="sans-serif" font-size="13" lengthAdjust="spacing" textLength="7.436" x="443.7" y="516.6549">6</text></g><!--link Action to Executor--><g class="link" data-entity-1="ent0006" data-entity-2="ent0014" data-link-type="dependency" data-source-line="63" id="lnk27"><path d="M643.51,508.2679 C693.83,508.2679 763.47,508.2679 763.47,508.2679 C763.47,508.2679 763.47,682.0679 763.47,742.8279" fill="none" id="Action-to-Executor" style="stroke:#181818;stroke-width:1;"/><polygon fill="#181818" points="763.47,747.8279,767.47,738.8279,763.47,742.8279,759.47,738.8279,763.47,747.8279" style="stroke:#181818;stroke-width:1;stroke-linejoin:miter;stroke-miterlimit:10;"/><text fill="#000000" font-family="sans-serif" font-size="13" lengthAdjust="spacing" textLength="7.436" x="755.47" y="582.9649">7</text></g><!--link Executor to Approver--><g class="link" data-entity-1="ent0014" data-entity-2="ent0015" data-link-type="dependency" data-source-line="64" id="lnk28"><path d="M862.47,787.6379 C862.47,807.5479 862.47,835.2479 862.47,835.2479 C862.47,835.2479 949.36,835.2479 1004.64,835.2479" fill="none" id="Executor-to-Approver" style="stroke:#181818;stroke-width:1;"/><polygon fill="#181818" points="1009.64,835.2479,1000.64,831.2479,1004.64,835.2479,1000.64,839.2479,1009.64,835.2479" style="stroke:#181818;stroke-width:1;stroke-linejoin:miter;stroke-miterlimit:10;"/><text fill="#000000" font-family="sans-serif" font-size="13" lengthAdjust="spacing" textLength="14.729" x="897.25" y="850.1449">8a</text></g><!--link Executor to Tool--><g class="link" data-entity-1="ent0014" data-entity-2="ent0016" data-link-type="dependency" data-source-line="65" id="lnk29"><path d="M865.43,767.7579 C904.43,767.7579 952.09,767.7579 991.24,767.7579" fill="none" id="Executor-to-Tool" style="stroke:#181818;stroke-width:1;"/><polygon fill="#181818" points="996.24,767.7579,987.24,763.7579,991.24,767.7579,987.24,771.7579,996.24,767.7579" style="stroke:#181818;stroke-width:1;stroke-linejoin:miter;stroke-miterlimit:10;"/><text fill="#000000" font-family="sans-serif" font-size="13" lengthAdjust="spacing" textLength="15.431" x="914.84" y="782.6549">8b</text></g><!--link Action to Context--><g class="link" data-entity-1="ent0006" data-entity-2="ent0010" data-link-type="dependency" data-source-line="66" id="lnk30"><path d="M643.47,495.2479 C684.49,495.2479 735.47,495.2479 735.47,495.2479 C735.47,495.2479 735.47,440.7579 735.47,408.6879" fill="none" id="Action-to-Context" style="stroke:#181818;stroke-width:1;"/><polygon fill="#181818" points="735.47,403.6879,731.47,412.6879,735.47,408.6879,739.47,412.6879,735.47,403.6879" style="stroke:#181818;stroke-width:1;stroke-linejoin:miter;stroke-miterlimit:10;"/><text fill="#000000" font-family="sans-serif" font-size="13" lengthAdjust="spacing" textLength="7.436" x="727.25" y="510.1449">9</text></g><!--link Context to Ledger--><g class="link" data-entity-1="ent0010" data-entity-2="ent0011" data-link-type="dependency" data-source-line="67" id="lnk31"><path d="M899.7,383.7579 C934.37,383.7579 967.86,383.7579 997.26,383.7579" fill="none" id="Context-to-Ledger" style="stroke:#181818;stroke-width:1;"/><polygon fill="#181818" points="1002.26,383.7579,993.26,379.7579,997.26,383.7579,993.26,387.7579,1002.26,383.7579" style="stroke:#181818;stroke-width:1;stroke-linejoin:miter;stroke-miterlimit:10;"/><text fill="#000000" font-family="sans-serif" font-size="13" lengthAdjust="spacing" textLength="46.397" x="903.98" y="398.6549">records</text></g><!--link Navigator to Observe--><g class="link" data-entity-1="ent0004" data-entity-2="ent0007" data-link-type="dependency" data-source-line="68" id="lnk32"><path d="M462.79,578.2579 C480.77,578.2579 497.16,578.2579 517.35,578.2579" fill="none" id="Navigator-to-Observe" style="stroke:#181818;stroke-width:1;"/><polygon fill="#181818" points="522.35,578.2579,513.35,574.2579,517.35,578.2579,513.35,582.2579,522.35,578.2579" style="stroke:#181818;stroke-width:1;stroke-linejoin:miter;stroke-miterlimit:10;"/><text fill="#000000" font-family="sans-serif" font-size="13" lengthAdjust="spacing" textLength="14.872" x="477.57" y="593.1549">10</text></g><!--link Observe to Controller--><g class="link" data-entity-1="ent0007" data-entity-2="ent0008" data-link-type="dependency" data-source-line="69" id="lnk33"><path d="M663.29,575.7579 C697.95,575.7579 733.61,575.7579 763.62,575.7579" fill="none" id="Observe-to-Controller" style="stroke:#181818;stroke-width:1;"/><polygon fill="#181818" points="768.62,575.7579,759.62,571.7579,763.62,575.7579,759.62,579.7579,768.62,575.7579" style="stroke:#181818;stroke-width:1;stroke-linejoin:miter;stroke-miterlimit:10;"/><text fill="#000000" font-family="sans-serif" font-size="13" lengthAdjust="spacing" textLength="14.872" x="700.96" y="590.6549">11</text></g><!--link Observe to Context--><g class="link" data-entity-1="ent0007" data-entity-2="ent0010" data-link-type="dependency" data-source-line="70" id="lnk34"><path d="M653.47,555.9079 C653.47,508.0579 653.47,390.2679 653.47,390.2679 C653.47,390.2679 682.7,390.2679 719.34,390.2679" fill="none" id="Observe-to-Context" style="stroke:#181818;stroke-width:1;"/><polygon fill="#181818" points="724.34,390.2679,715.34,386.2679,719.34,390.2679,715.34,394.2679,724.34,390.2679" style="stroke:#181818;stroke-width:1;stroke-linejoin:miter;stroke-miterlimit:10;"/><text fill="#000000" font-family="sans-serif" font-size="13" lengthAdjust="spacing" textLength="14.872" x="638.47" y="452.5449">12</text></g><!--link Navigator to Reason--><g class="link" data-entity-1="ent0004" data-entity-2="ent0005" data-link-type="dependency" data-source-line="71" id="lnk35"><path d="M434.47,600.6479 C434.47,615.2579 434.47,632.5779 434.47,632.5779 C434.47,632.5779 487.87,632.5779 533.72,632.5779" fill="none" id="Navigator-to-Reason" style="stroke:#181818;stroke-width:1;"/><polygon fill="#181818" points="538.72,632.5779,529.72,628.5779,533.72,632.5779,529.72,636.5779,538.72,632.5779" style="stroke:#181818;stroke-width:1;stroke-linejoin:miter;stroke-miterlimit:10;"/><text fill="#000000" font-family="sans-serif" font-size="13" lengthAdjust="spacing" textLength="14.872" x="455.63" y="647.4749">13</text></g><!--link Reason to Bus--><g class="link" data-entity-1="ent0005" data-entity-2="ent0018" data-link-type="dependency" data-source-line="73" id="lnk36"><path d="M574.47,669.5579 C574.47,738.8479 574.47,966.2679 574.47,966.2679 C574.47,966.2679 889.74,966.2679 1004.84,966.2679" fill="none" id="Reason-to-Bus" style="stroke:#181818;stroke-width:1;stroke-dasharray:7,7;"/><polygon fill="#181818" points="1009.84,966.2679,1000.84,962.2679,1004.84,966.2679,1000.84,970.2679,1009.84,966.2679" style="stroke:#181818;stroke-width:1;stroke-linejoin:miter;stroke-miterlimit:10;"/><text fill="#000000" font-family="sans-serif" font-size="13" lengthAdjust="spacing" textLength="33.995" x="609.8" y="981.1649">event</text></g><!--link Executor to Bus--><g class="link" data-entity-1="ent0014" data-entity-2="ent0018" data-link-type="dependency" data-source-line="74" id="lnk37"><path d="M860.47,787.6079 C860.47,835.4579 860.47,953.2479 860.47,953.2479 C860.47,953.2479 948.86,953.2479 1004.67,953.2479" fill="none" id="Executor-to-Bus" style="stroke:#181818;stroke-width:1;stroke-dasharray:7,7;"/><polygon fill="#181818" points="1009.67,953.2479,1000.67,949.2479,1004.67,953.2479,1000.67,957.2479,1009.67,953.2479" style="stroke:#181818;stroke-width:1;stroke-linejoin:miter;stroke-miterlimit:10;"/><text fill="#000000" font-family="sans-serif" font-size="13" lengthAdjust="spacing" textLength="33.995" x="826.47" y="959.9249">event</text></g><!--link Observe to Bus--><g class="link" data-entity-1="ent0007" data-entity-2="ent0018" data-link-type="dependency" data-source-line="75" id="lnk38"><path d="M654.47,595.5979 C654.47,674.2279 654.47,959.7579 654.47,959.7579 C654.47,959.7579 903.37,959.7579 1004.54,959.7579" fill="none" id="Observe-to-Bus" style="stroke:#181818;stroke-width:1;stroke-dasharray:7,7;"/><polygon fill="#181818" points="1009.54,959.7579,1000.54,955.7579,1004.54,959.7579,1000.54,963.7579,1009.54,959.7579" style="stroke:#181818;stroke-width:1;stroke-linejoin:miter;stroke-miterlimit:10;"/><text fill="#000000" font-family="sans-serif" font-size="13" lengthAdjust="spacing" textLength="33.995" x="655.47" y="970.1049">event</text></g><!--link Loop to Bus--><g class="link" data-entity-1="ent0003" data-entity-2="ent0018" data-link-type="dependency" data-source-line="76" id="lnk39"><path d="M227.47,637.6079 C227.47,712.3679 227.47,972.7779 227.47,972.7779 C227.47,972.7779 838.55,972.7779 1004.61,972.7779" fill="none" id="Loop-to-Bus" style="stroke:#181818;stroke-width:1;stroke-dasharray:7,7;"/><polygon fill="#181818" points="1009.61,972.7779,1000.61,968.7779,1004.61,972.7779,1000.61,976.7779,1009.61,972.7779" style="stroke:#181818;stroke-width:1;stroke-linejoin:miter;stroke-miterlimit:10;"/><text fill="#000000" font-family="sans-serif" font-size="13" lengthAdjust="spacing" textLength="33.995" x="416.95" y="987.6749">event</text></g><!--link Bus to Progress--><g class="link" data-entity-1="ent0018" data-entity-2="ent0019" data-link-type="dependency" data-source-line="77" id="lnk40"><path d="M1091.24,959.7579 C1122.31,959.7579 1160.4,959.7579 1194.52,959.7579" fill="none" id="Bus-to-Progress" style="stroke:#181818;stroke-width:1;"/><polygon fill="#181818" points="1199.52,959.7579,1190.52,955.7579,1194.52,959.7579,1190.52,963.7579,1199.52,959.7579" style="stroke:#181818;stroke-width:1;stroke-linejoin:miter;stroke-miterlimit:10;"/><text fill="#000000" font-family="sans-serif" font-size="13" lengthAdjust="spacing" textLength="14.872" x="1130.38" y="974.6549">14</text></g><!--link Progress to Renderer--><g class="link" data-entity-1="ent0019" data-entity-2="ent0020" data-link-type="dependency" data-source-line="78" id="lnk41"><path d="M1309.33,959.7579 C1328.89,959.7579 1345.57,959.7579 1363.78,959.7579" fill="none" id="Progress-to-Renderer" style="stroke:#181818;stroke-width:1;"/><polygon fill="#181818" points="1368.78,959.7579,1359.78,955.7579,1363.78,959.7579,1359.78,963.7579,1368.78,959.7579" style="stroke:#181818;stroke-width:1;stroke-linejoin:miter;stroke-miterlimit:10;"/><text fill="#000000" font-family="sans-serif" font-size="13" lengthAdjust="spacing" textLength="14.872" x="1324.05" y="974.6549">15</text></g><!--link Model to GMN45--><g class="link" data-entity-1="ent0013" data-entity-2="ent0046" data-link-type="association" data-source-line="87" id="lnk47"><path d="M858.08,848.2679 C891.37,848.2679 930.47,848.2679 930.47,848.2679 C930.47,848.2679 930.47,279.7579 930.47,279.7579 C930.47,279.7579 917.4,279.7579 899.93,279.7579" fill="none" id="Model-GMN45" style="stroke:#181818;stroke-width:1;stroke-dasharray:7,7;"/></g><!--link Executor to GMN48--><g class="link" data-entity-1="ent0014" data-entity-2="ent0049" data-link-type="association" data-source-line="92" id="lnk50"><path d="M758.51,767.7579 C722.86,767.7579 682.47,767.7579 682.47,767.7579 C682.47,767.7579 682.47,185.7579 682.47,185.7579 C682.47,185.7579 700.29,185.7579 722.71,185.7579" fill="none" id="Executor-GMN48" style="stroke:#181818;stroke-width:1;stroke-dasharray:7,7;"/></g><!--link Context to GMN51--><g class="link" data-entity-1="ent0010" data-entity-2="ent0052" data-link-type="association" data-source-line="98" id="lnk53"><path d="M724.09,377.2479 C711.37,377.2479 702.47,377.2479 702.47,377.2479 C702.47,377.2479 702.47,83.7579 702.47,83.7579 C702.47,83.7579 719,83.7579 739.21,83.7579" fill="none" id="Context-GMN51" style="stroke:#181818;stroke-width:1;stroke-dasharray:7,7;"/></g><!--link Bus to GMN54--><g class="link" data-entity-1="ent0018" data-entity-2="ent0055" data-link-type="association" data-source-line="105" id="lnk56"><path d="M1009.82,946.7379 C993.5,946.7379 978.47,946.7379 978.47,946.7379 C978.47,946.7379 978.47,451.6379 978.47,309.4979" fill="none" id="Bus-GMN54" style="stroke:#181818;stroke-width:1;stroke-dasharray:7,7;"/></g><?plantuml-src TLLDR-Cs4BtpLn3f9GKQnt8Inzl30ewJe0LskuiaQ8yBMXpBX6bI82axQT7_lZEaQ4iod8F3cJUSBxuP1HKqyBdS2LE2vFCAJE1N_AKnGMs1BwpMOccT2CeQnZIi0W-MErMj0vVAGHa1lr6c5avikLO6maSDtBgmjXt0huMqUsKglXBQGmVPEr7_esHOys8wxkYtulqhU2ygU5N_0Yzc7MpkdDs_hLMvCMZ2YmuaOIKQ7TxWFSorgioMAYhn1nphc57gmbHO_7-CymTHRYfd6oEnOkluBy_tpxFd1I7MIN2jTlfmFvcDKVkIJ9q1nsVi_wxZ6brXpcVSnh-XsyN3uzrJqNTZR3ZlO_Ou7VfuBERZoHorpzQ4rB09UJpMUV6AhSBNkk32y_RCM4xtuekrDI-jWuiOjdClaeBWU9CEVVmliLEL2DP5_23rZLv0U6k-huM7Q9RaGQ38fgDDalistvOUt4xq3PCI-fOBR8H3_aBAwoXIMmvbPwRx8CAPqf_UeMme8Bb0MXtSuRbl_YRyvWl8gWsPZhrmJ-_8GoCqht50_4cynLg4hrQ2ZlVZQH31MftoQTkTXK7UTUtihaqZ2wUU_gIfM8aoTP4qlMJRNY-LLk7Z9DUd7VRceV7nBlxlez-ThHoIx6y5-sYH5KDQ6EHmcsWMA8cMeFpgwdEa7FyTfpmUI9FOWxe9Qu-aZVr2vKrNsJuKgc-FzmyaHVKTEqg49TOXC6NjaRIvpwY_PmSXshVjHMGc-X1rbDJBhgTZGfzOFiSg8rjGZUt1oVQ3j5gEKn_6B0lPNo8sOSK9bcBXDkZxExImk66vNwFHPtf9L08zxh6O8P1Z3FMnmKCbdIbYPW35l6K7AIMJNfwWEyRYyblQ4EoMsrLUEKNUMZIiE3tSDUQoJ1N-YlZaUdfTZA-B6-v18yNmUrRJYY0xejrTvzaTXCQPDCRADFIzudy87HWc4dVlIH9v66_uOKX7fTtM6W9SZaOZog0KflMCNqby-b9exSdrIj7C2-FtoEwp8JgpVC-xapw2U81BSaY1PW8NY5RbnxM8x4Fd3dOuQeGjKt0XHOtZpPNPsJ9zmCz6FcwpMxvNOVr3OAEnooRaqZubFNd-WS-6NrYVeMB2RUA3l2GvaqvvhhRR9eYbXj7vs6brn6s25qof6mcfsmki5kHlYAPbjRCR5AFG4Z22YuzImw9z2ebTbf4nhy7MDSXEv9y0?></g></svg>