<svg xmlns="http://www.w3.org/2000/svg" xmlns:xlink="http://www.w3.org/1999/xlink" contentStyleType="text/css" data-diagram-type="CLASS" height="1045px" preserveAspectRatio="none" style="width:885px;height:1045px;background:#FFFFFF;" version="1.1" viewBox="0 0 885 1045" width="885px" zoomAndPan="magnify"><?plantuml $version$?><defs/><g><g class="title" data-source-line="1"><text fill="#000000" font-family="sans-serif" font-size="14" font-weight="700" lengthAdjust="spacing" textLength="391.4245" x="243.5472" y="24.9659">harness.runtime &#8212; immutable spine + shared task state</text></g><!--class AgentExecutionContext--><g class="entity" data-qualified-name="AgentExecutionContext" data-source-line="13" id="ent0001"><rect fill="#F1F1F1" height="276.815" rx="2.5" ry="2.5" style="stroke:#181818;stroke-width:0.5;" width="339.1089" x="300.72" y="212.2679"/><ellipse cx="388.6327" cy="228.2679" fill="#ADD1B2" rx="11" ry="11" style="stroke:#181818;stroke-width:1;"/><path d="M388.1015,235.1898 Q386.3515,235.1898 385.2109,234.4554 Q384.0859,233.7054 383.5234,232.3617 Q382.9765,231.0023 382.9765,229.2054 Q382.9765,227.1742 383.6327,225.721 Q384.289,224.2679 385.5702,223.4867 Q386.8515,222.7054 388.7265,222.7054 Q389.6171,222.7054 390.289,222.8929 Q390.9609,223.0648 391.6484,223.4085 L390.8359,225.4242 Q390.2109,225.1117 389.664,224.9867 Q389.1327,224.8617 388.6484,224.8617 Q387.4765,224.8617 386.7734,225.3929 Q386.0702,225.9242 385.7734,226.8773 Q385.4765,227.8304 385.4765,229.096 Q385.4765,231.1117 386.1952,232.0804 Q386.914,233.0335 388.5077,233.0335 Q389.1015,233.0335 389.7265,232.8773 Q390.3515,232.721 391.1796,232.346 L391.1796,234.5648 Q390.4452,234.8773 389.6484,235.0335 Q388.8671,235.1898 388.1015,235.1898 Z " fill="#000000"/><text fill="#000000" font-family="sans-serif" font-size="14" lengthAdjust="spacing" textLength="154.7834" x="409.1327" y="233.6999">AgentExecutionContext</text><line style="stroke:#181818;stroke-width:0.5;" x1="301.72" x2="638.8289" y1="244.2679" y2="244.2679"/><g data-visibility-modifier="PUBLIC_METHOD"><ellipse cx="311.72" cy="282.3698" fill="#84BE84" rx="3" ry="3" style="stroke:#038048;stroke-width:1;"/></g><text fill="#000000" font-family="sans-serif" font-size="14" lengthAdjust="spacing" textLength="148.1334" x="320.72" y="286.3018">current_conversation()</text><g data-visibility-modifier="PUBLIC_METHOD"><ellipse cx="311.72" cy="301.4377" fill="#84BE84" rx="3" ry="3" style="stroke:#038048;stroke-width:1;"/></g><text fill="#000000" font-family="sans-serif" font-size="14" lengthAdjust="spacing" textLength="129.5835" x="320.72" y="305.3697">pending_tool_calls()</text><g data-visibility-modifier="PUBLIC_METHOD"><ellipse cx="311.72" cy="320.5056" fill="#84BE84" rx="3" ry="3" style="stroke:#038048;stroke-width:1;"/></g><text fill="#000000" font-family="sans-serif" font-size="14" lengthAdjust="spacing" textLength="188.4113" x="320.72" y="324.4376">state() / metadata() / ledger()</text><g data-visibility-modifier="PUBLIC_METHOD"><ellipse cx="311.72" cy="339.5735" fill="#84BE84" rx="3" ry="3" style="stroke:#038048;stroke-width:1;"/></g><text fill="#000000" font-family="sans-serif" font-size="14" lengthAdjust="spacing" textLength="265.915" x="320.72" y="343.5055">cycle_signature() / recorded_signatures()</text><line style="stroke:#181818;stroke-width:1;" x1="301.72" x2="445.6975" y1="261.8019" y2="261.8019"/><text fill="#000000" font-family="sans-serif" font-size="14" lengthAdjust="spacing" textLength="49.1538" x="445.6975" y="266.7339">queries</text><line style="stroke:#181818;stroke-width:1;" x1="494.8513" x2="638.8289" y1="261.8019" y2="261.8019"/><g data-visibility-modifier="PUBLIC_METHOD"><ellipse cx="311.72" cy="381.7094" fill="#84BE84" rx="3" ry="3" style="stroke:#038048;stroke-width:1;"/></g><text fill="#000000" font-family="sans-serif" font-size="14" lengthAdjust="spacing" textLength="310.6168" x="320.72" y="385.6414">with_assistant(c)  ' increments iteration + usage</text><g data-visibility-modifier="PUBLIC_METHOD"><ellipse cx="311.72" cy="400.7773" fill="#84BE84" rx="3" ry="3" style="stroke:#038048;stroke-width:1;"/></g><text fill="#000000" font-family="sans-serif" font-size="14" lengthAdjust="spacing" textLength="124.9495" x="320.72" y="404.7093">with_tool_results(r)</text><g data-visibility-modifier="PUBLIC_METHOD"><ellipse cx="311.72" cy="419.8452" fill="#84BE84" rx="3" ry="3" style="stroke:#038048;stroke-width:1;"/></g><text fill="#000000" font-family="sans-serif" font-size="14" lengthAdjust="spacing" textLength="313.1089" x="320.72" y="423.7772">observed()         ' folds results, records signature</text><g data-visibility-modifier="PUBLIC_METHOD"><ellipse cx="311.72" cy="438.9131" fill="#84BE84" rx="3" ry="3" style="stroke:#038048;stroke-width:1;"/></g><text fill="#000000" font-family="sans-serif" font-size="14" lengthAdjust="spacing" textLength="203.0553" x="320.72" y="442.8451">stopped(out) / aborted(reason)</text><g data-visibility-modifier="PUBLIC_METHOD"><ellipse cx="311.72" cy="457.981" fill="#84BE84" rx="3" ry="3" style="stroke:#038048;stroke-width:1;"/></g><text fill="#000000" font-family="sans-serif" font-size="14" lengthAdjust="spacing" textLength="234.6531" x="320.72" y="461.913">advised(note)      ' user-role steering</text><g data-visibility-modifier="PUBLIC_FIELD"><ellipse cx="311.72" cy="477.049" fill="none" rx="3" ry="3" style="stroke:#038048;stroke-width:1;"/></g><text fill="#000000" font-family="sans-serif" font-size="14" lengthAdjust="spacing" textLength="212.5892" x="320.72" y="480.9809">crediting/consulting/touching/...</text><line style="stroke:#181818;stroke-width:1;" x1="301.72" x2="383.9648" y1="361.1415" y2="361.1415"/><text fill="#000000" font-family="sans-serif" font-size="14" lengthAdjust="spacing" textLength="172.6193" x="383.9648" y="366.0734">transitions (copy-on-write)</text><line style="stroke:#181818;stroke-width:1;" x1="556.5841" x2="638.8289" y1="361.1415" y2="361.1415"/></g><!--class TaskLedger--><g class="entity" data-qualified-name="TaskLedger" data-source-line="28" id="ent0002"><rect fill="#F1F1F1" height="143.3396" rx="2.5" ry="2.5" style="stroke:#181818;stroke-width:0.5;" width="202.5673" x="127.99" y="549.0779"/><ellipse cx="187.0488" cy="565.0779" fill="#ADD1B2" rx="11" ry="11" style="stroke:#181818;stroke-width:1;"/><path d="M186.5175,571.9998 Q184.7675,571.9998 183.6269,571.2654 Q182.5019,570.5154 181.9394,569.1717 Q181.3925,567.8123 181.3925,566.0154 Q181.3925,563.9842 182.0488,562.531 Q182.705,561.0779 183.9863,560.2967 Q185.2675,559.5154 187.1425,559.5154 Q188.0332,559.5154 188.705,559.7029 Q189.3769,559.8748 190.0644,560.2185 L189.2519,562.2342 Q188.6269,561.9217 188.08,561.7967 Q187.5488,561.6717 187.0644,561.6717 Q185.8925,561.6717 185.1894,562.2029 Q184.4863,562.7342 184.1894,563.6873 Q183.8925,564.6404 183.8925,565.906 Q183.8925,567.9217 184.6113,568.8904 Q185.33,569.8435 186.9238,569.8435 Q187.5175,569.8435 188.1425,569.6873 Q188.7675,569.531 189.5957,569.156 L189.5957,571.3748 Q188.8613,571.6873 188.0644,571.8435 Q187.2832,571.9998 186.5175,571.9998 Z " fill="#000000"/><text fill="#000000" font-family="sans-serif" font-size="14" lengthAdjust="spacing" textLength="75.9497" x="207.5488" y="570.5099">TaskLedger</text><line style="stroke:#181818;stroke-width:0.5;" x1="128.99" x2="329.5573" y1="581.0779" y2="581.0779"/><line style="stroke:#181818;stroke-width:0.5;" x1="128.99" x2="329.5573" y1="589.0779" y2="589.0779"/><g data-visibility-modifier="PUBLIC_METHOD"><ellipse cx="138.99" cy="604.1119" fill="#84BE84" rx="3" ry="3" style="stroke:#038048;stroke-width:1;"/></g><text fill="#000000" font-family="sans-serif" font-size="14" lengthAdjust="spacing" textLength="115.4156" x="147.99" y="608.0439">original_request()</text><g data-visibility-modifier="PUBLIC_METHOD"><ellipse cx="138.99" cy="623.1798" fill="#84BE84" rx="3" ry="3" style="stroke:#038048;stroke-width:1;"/></g><text fill="#000000" font-family="sans-serif" font-size="14" lengthAdjust="spacing" textLength="172.7734" x="147.99" y="627.1118">progress() / observations()</text><g data-visibility-modifier="PUBLIC_METHOD"><ellipse cx="138.99" cy="642.2477" fill="#84BE84" rx="3" ry="3" style="stroke:#038048;stroke-width:1;"/></g><text fill="#000000" font-family="sans-serif" font-size="14" lengthAdjust="spacing" textLength="121.0575" x="147.99" y="646.1797">subagent_results()</text><g data-visibility-modifier="PUBLIC_METHOD"><ellipse cx="138.99" cy="661.3156" fill="#84BE84" rx="3" ry="3" style="stroke:#038048;stroke-width:1;"/></g><text fill="#000000" font-family="sans-serif" font-size="14" lengthAdjust="spacing" textLength="129.9195" x="147.99" y="665.2476">sources_consulted()</text><g data-visibility-modifier="PUBLIC_METHOD"><ellipse cx="138.99" cy="680.3835" fill="#84BE84" rx="3" ry="3" style="stroke:#038048;stroke-width:1;"/></g><text fill="#000000" font-family="sans-serif" font-size="14" lengthAdjust="spacing" textLength="176.5673" x="147.99" y="684.3155">modified_files()   ' deduped</text></g><!--class ExecutionMetadata--><g class="entity" data-qualified-name="ExecutionMetadata" data-source-line="36" id="ent0003"><rect fill="#F1F1F1" height="105.2038" rx="2.5" ry="2.5" style="stroke:#181818;stroke-width:0.5;" width="210.1553" x="365.19" y="568.1479"/><ellipse cx="403.1561" cy="584.1479" fill="#ADD1B2" rx="11" ry="11" style="stroke:#181818;stroke-width:1;"/><path d="M402.6248,591.0698 Q400.8748,591.0698 399.7342,590.3354 Q398.6092,589.5854 398.0467,588.2417 Q397.4998,586.8823 397.4998,585.0854 Q397.4998,583.0542 398.1561,581.601 Q398.8123,580.1479 400.0936,579.3667 Q401.3748,578.5854 403.2498,578.5854 Q404.1405,578.5854 404.8123,578.7729 Q405.4842,578.9448 406.1717,579.2885 L405.3592,581.3042 Q404.7342,580.9917 404.1873,580.8667 Q403.6561,580.7417 403.1717,580.7417 Q401.9998,580.7417 401.2967,581.2729 Q400.5936,581.8042 400.2967,582.7573 Q399.9998,583.7104 399.9998,584.976 Q399.9998,586.9917 400.7186,587.9604 Q401.4373,588.9135 403.0311,588.9135 Q403.6248,588.9135 404.2498,588.7573 Q404.8748,588.601 405.703,588.226 L405.703,590.4448 Q404.9686,590.7573 404.1717,590.9135 Q403.3905,591.0698 402.6248,591.0698 Z " fill="#000000"/><text fill="#000000" font-family="sans-serif" font-size="14" lengthAdjust="spacing" textLength="127.1195" x="422.2597" y="589.5799">ExecutionMetadata</text><line style="stroke:#181818;stroke-width:0.5;" x1="366.19" x2="574.3453" y1="600.1479" y2="600.1479"/><g data-visibility-modifier="PUBLIC_FIELD"><ellipse cx="376.19" cy="615.1819" fill="none" rx="3" ry="3" style="stroke:#038048;stroke-width:1;"/></g><text fill="#000000" font-family="sans-serif" font-size="14" lengthAdjust="spacing" textLength="91.0417" x="385.19" y="619.1139">iterations : int</text><g data-visibility-modifier="PUBLIC_FIELD"><ellipse cx="376.19" cy="634.2498" fill="none" rx="3" ry="3" style="stroke:#038048;stroke-width:1;"/></g><text fill="#000000" font-family="sans-serif" font-size="14" lengthAdjust="spacing" textLength="132.3275" x="385.19" y="638.1818">usage : TokenUsage</text><line style="stroke:#181818;stroke-width:0.5;" x1="366.19" x2="574.3453" y1="646.2838" y2="646.2838"/><g data-visibility-modifier="PUBLIC_METHOD"><ellipse cx="376.19" cy="661.3177" fill="#84BE84" rx="3" ry="3" style="stroke:#038048;stroke-width:1;"/></g><text fill="#000000" font-family="sans-serif" font-size="14" lengthAdjust="spacing" textLength="184.1553" x="385.19" y="665.2497">incremented() / add_usage()</text></g><!--class ExecutionState--><g class="entity" data-qualified-name="ExecutionState" data-source-line="42" id="ent0004"><rect fill="#F1F1F1" height="105.2038" rx="2.5" ry="2.5" style="stroke:#181818;stroke-width:0.5;" width="260.499" x="610.02" y="568.1479"/><ellipse cx="687.1247" cy="584.1479" fill="#EB937F" rx="11" ry="11" style="stroke:#181818;stroke-width:1;"/><path d="M683.4841,590.6479 L683.4841,578.5073 L691.1403,578.5073 L691.1403,580.6323 L685.8591,580.6323 L685.8591,583.2885 L690.8747,583.2885 L690.8747,585.4135 L685.8591,585.4135 L685.8591,588.5229 L691.1403,588.5229 L691.1403,590.6479 L683.4841,590.6479 Z " fill="#000000"/><text fill="#000000" font-family="sans-serif" font-size="14" lengthAdjust="spacing" textLength="97.7896" x="707.6247" y="589.5799">ExecutionState</text><line style="stroke:#181818;stroke-width:0.5;" x1="611.02" x2="869.519" y1="600.1479" y2="600.1479"/><text fill="#000000" font-family="sans-serif" font-size="14" lengthAdjust="spacing" textLength="186.4932" x="616.02" y="619.1139">IDLE / REASONING / ACTING</text><text fill="#000000" font-family="sans-serif" font-size="14" lengthAdjust="spacing" textLength="248.499" x="616.02" y="638.1818">OBSERVING / COMPLETED / ABORTED</text><line style="stroke:#181818;stroke-width:0.5;" x1="611.02" x2="869.519" y1="646.2838" y2="646.2838"/><g data-visibility-modifier="PUBLIC_METHOD"><ellipse cx="621.02" cy="661.3177" fill="#84BE84" rx="3" ry="3" style="stroke:#038048;stroke-width:1;"/></g><text fill="#000000" font-family="sans-serif" font-size="14" lengthAdjust="spacing" textLength="80.4857" x="630.02" y="665.2497">is_terminal()</text></g><!--class Source--><g class="entity" data-qualified-name="Source" data-source-line="48" id="ent0005"><rect fill="#F1F1F1" height="40" rx="2.5" ry="2.5" style="stroke:#181818;stroke-width:0.5;" width="77.2058" x="113.67" y="765.9579"/><ellipse cx="128.67" cy="781.9579" fill="#ADD1B2" rx="11" ry="11" style="stroke:#181818;stroke-width:1;"/><path d="M128.1388,788.8798 Q126.3888,788.8798 125.2481,788.1454 Q124.1231,787.3954 123.5606,786.0517 Q123.0138,784.6923 123.0138,782.8954 Q123.0138,780.8642 123.67,779.411 Q124.3263,777.9579 125.6075,777.1767 Q126.8888,776.3954 128.7638,776.3954 Q129.6544,776.3954 130.3263,776.5829 Q130.9981,776.7548 131.6856,777.0985 L130.8731,779.1142 Q130.2481,778.8017 129.7013,778.6767 Q129.17,778.5517 128.6856,778.5517 Q127.5138,778.5517 126.8106,779.0829 Q126.1075,779.6142 125.8106,780.5673 Q125.5138,781.5204 125.5138,782.786 Q125.5138,784.8017 126.2325,785.7704 Q126.9513,786.7235 128.545,786.7235 Q129.1388,786.7235 129.7638,786.5673 Q130.3888,786.411 131.2169,786.036 L131.2169,788.2548 Q130.4825,788.5673 129.6856,788.7235 Q128.9044,788.8798 128.1388,788.8798 Z " fill="#000000"/><text fill="#000000" font-family="sans-serif" font-size="14" lengthAdjust="spacing" textLength="45.2058" x="142.67" y="787.3899">Source</text><line style="stroke:#181818;stroke-width:0.5;" x1="114.67" x2="189.8758" y1="797.9579" y2="797.9579"/></g><!--class Origin--><g class="entity" data-qualified-name="Origin" data-source-line="49" id="ent0006"><rect fill="#F1F1F1" height="59.0679" rx="2.5" ry="2.5" style="stroke:#181818;stroke-width:0.5;" width="290.5428" x="7" y="879.4879"/><ellipse cx="127.4205" cy="895.4879" fill="#EB937F" rx="11" ry="11" style="stroke:#181818;stroke-width:1;"/><path d="M123.7799,901.9879 L123.7799,889.8473 L131.4361,889.8473 L131.4361,891.9723 L126.1549,891.9723 L126.1549,894.6285 L131.1705,894.6285 L131.1705,896.7535 L126.1549,896.7535 L126.1549,899.8629 L131.4361,899.8629 L131.4361,901.9879 L123.7799,901.9879 Z " fill="#000000"/><text fill="#000000" font-family="sans-serif" font-size="14" lengthAdjust="spacing" textLength="41.2018" x="147.9205" y="900.9199">Origin</text><line style="stroke:#181818;stroke-width:0.5;" x1="8" x2="296.5428" y1="911.4879" y2="911.4879"/><text fill="#000000" font-family="sans-serif" font-size="14" lengthAdjust="spacing" textLength="278.5428" x="13" y="930.4539">REPO / MEMORY / RAG / WEB / INFERENCE</text></g><!--class SubagentResult--><g class="entity" data-qualified-name="SubagentResult" data-source-line="52" id="ent0007"><rect fill="#F1F1F1" height="67.0679" rx="2.5" ry="2.5" style="stroke:#181818;stroke-width:0.5;" width="161.6455" x="225.45" y="752.4179"/><ellipse cx="252.1517" cy="768.4179" fill="#ADD1B2" rx="11" ry="11" style="stroke:#181818;stroke-width:1;"/><path d="M251.6205,775.3398 Q249.8705,775.3398 248.7299,774.6054 Q247.6049,773.8554 247.0424,772.5117 Q246.4955,771.1523 246.4955,769.3554 Q246.4955,767.3242 247.1517,765.871 Q247.808,764.4179 249.0892,763.6367 Q250.3705,762.8554 252.2455,762.8554 Q253.1361,762.8554 253.808,763.0429 Q254.4799,763.2148 255.1674,763.5585 L254.3549,765.5742 Q253.7299,765.2617 253.183,765.1367 Q252.6517,765.0117 252.1674,765.0117 Q250.9955,765.0117 250.2924,765.5429 Q249.5892,766.0742 249.2924,767.0273 Q248.9955,767.9804 248.9955,769.246 Q248.9955,771.2617 249.7142,772.2304 Q250.433,773.1835 252.0267,773.1835 Q252.6205,773.1835 253.2455,773.0273 Q253.8705,772.871 254.6986,772.496 L254.6986,774.7148 Q253.9642,775.0273 253.1674,775.1835 Q252.3861,775.3398 251.6205,775.3398 Z " fill="#000000"/><text fill="#000000" font-family="sans-serif" font-size="14" lengthAdjust="spacing" textLength="103.6416" x="268.7521" y="773.8499">SubagentResult</text><line style="stroke:#181818;stroke-width:0.5;" x1="226.45" x2="386.0955" y1="784.4179" y2="784.4179"/><line style="stroke:#181818;stroke-width:0.5;" x1="226.45" x2="386.0955" y1="792.4179" y2="792.4179"/><g data-visibility-modifier="PUBLIC_METHOD"><ellipse cx="236.45" cy="807.4519" fill="#84BE84" rx="3" ry="3" style="stroke:#038048;stroke-width:1;"/></g><text fill="#000000" font-family="sans-serif" font-size="14" lengthAdjust="spacing" textLength="135.6455" x="245.45" y="811.3839">completed() / failed()</text></g><!--class ExecutionResult--><g class="entity" data-qualified-name="ExecutionResult" data-source-line="56" id="ent0008"><rect fill="#F1F1F1" height="105.2038" rx="2.5" ry="2.5" style="stroke:#181818;stroke-width:0.5;" width="243.2092" x="348.67" y="47.0679"/><ellipse cx="413.5878" cy="63.0679" fill="#ADD1B2" rx="11" ry="11" style="stroke:#181818;stroke-width:1;"/><path d="M413.0566,69.9898 Q411.3066,69.9898 410.1659,69.2554 Q409.0409,68.5054 408.4784,67.1617 Q407.9316,65.8023 407.9316,64.0054 Q407.9316,61.9742 408.5878,60.521 Q409.2441,59.0679 410.5253,58.2867 Q411.8066,57.5054 413.6816,57.5054 Q414.5722,57.5054 415.2441,57.6929 Q415.9159,57.8648 416.6034,58.2085 L415.7909,60.2242 Q415.1659,59.9117 414.6191,59.7867 Q414.0878,59.6617 413.6034,59.6617 Q412.4316,59.6617 411.7284,60.1929 Q411.0253,60.7242 410.7284,61.6773 Q410.4316,62.6304 410.4316,63.896 Q410.4316,65.9117 411.1503,66.8804 Q411.8691,67.8335 413.4628,67.8335 Q414.0566,67.8335 414.6816,67.6773 Q415.3066,67.521 416.1347,67.146 L416.1347,69.3648 Q415.4003,69.6773 414.6034,69.8335 Q413.8222,69.9898 413.0566,69.9898 Z " fill="#000000"/><text fill="#000000" font-family="sans-serif" font-size="14" lengthAdjust="spacing" textLength="104.8736" x="434.0878" y="68.4999">ExecutionResult</text><line style="stroke:#181818;stroke-width:0.5;" x1="349.67" x2="590.8792" y1="79.0679" y2="79.0679"/><g data-visibility-modifier="PUBLIC_FIELD"><ellipse cx="359.67" cy="94.1019" fill="none" rx="3" ry="3" style="stroke:#038048;stroke-width:1;"/></g><text fill="#000000" font-family="sans-serif" font-size="14" lengthAdjust="spacing" textLength="217.2092" x="368.67" y="98.0339">final_output / state / stop_reason</text><line style="stroke:#181818;stroke-width:0.5;" x1="349.67" x2="590.8792" y1="106.1358" y2="106.1358"/><g data-visibility-modifier="PUBLIC_METHOD"><ellipse cx="359.67" cy="121.1698" fill="#84BE84" rx="3" ry="3" style="stroke:#038048;stroke-width:1;"/></g><text fill="#000000" font-family="sans-serif" font-size="14" lengthAdjust="spacing" textLength="78.1057" x="368.67" y="125.1018">succeeded()</text><g data-visibility-modifier="PUBLIC_METHOD"><ellipse cx="359.67" cy="140.2377" fill="#84BE84" rx="3" ry="3" style="stroke:#038048;stroke-width:1;"/></g><text fill="#000000" font-family="sans-serif" font-size="14" lengthAdjust="spacing" textLength="115.2056" x="368.67" y="144.1697">from_context(ctx)</text></g><!--reverse link AgentExecutionContext to TaskLedger--><g class="link" data-entity-1="ent0001" data-entity-2="ent0002" data-link-type="composition" data-source-line="62" id="lnk9"><path codeLine="62" d="M315.64,501.2779 C315.64,521.8679 315.64,530.3479 315.64,548.8079" fill="none" id="AgentExecutionContext-backto-TaskLedger" style="stroke:#181818;stroke-width:1;"/><polygon fill="#181818" points="315.64,489.2779,311.64,495.2779,315.64,501.2779,319.64,495.2779,315.64,489.2779" style="stroke:#181818;stroke-width:1;stroke-linejoin:miter;stroke-miterlimit:10;"/></g><!--reverse link AgentExecutionContext to ExecutionMetadata--><g class="link" data-entity-1="ent0001" data-entity-2="ent0003" data-link-type="composition" data-source-line="63" id="lnk10"><path codeLine="63" d="M470.27,501.2779 C470.27,529.2479 470.27,545.0179 470.27,567.7779" fill="none" id="AgentExecutionContext-backto-ExecutionMetadata" style="stroke:#181818;stroke-width:1;"/><polygon fill="#181818" points="470.27,489.2779,466.27,495.2779,470.27,501.2779,474.27,495.2779,470.27,489.2779" style="stroke:#181818;stroke-width:1;stroke-linejoin:miter;stroke-miterlimit:10;"/></g><!--reverse link AgentExecutionContext to ExecutionState--><g class="link" data-entity-1="ent0001" data-entity-2="ent0004" data-link-type="aggregation" data-source-line="64" id="lnk11"><path codeLine="64" d="M624.92,501.2779 C624.92,529.2479 624.92,545.0179 624.92,567.7779" fill="none" id="AgentExecutionContext-backto-ExecutionState" style="stroke:#181818;stroke-width:1;"/><polygon fill="none" points="624.92,489.2779,620.92,495.2779,624.92,501.2779,628.92,495.2779,624.92,489.2779" style="stroke:#181818;stroke-width:1;stroke-linejoin:miter;stroke-miterlimit:10;"/></g><!--reverse link TaskLedger to Source--><g class="link" data-entity-1="ent0002" data-entity-2="ent0005" data-link-type="aggregation" data-source-line="65" id="lnk12"><path codeLine="65" d="M159.43,704.7279 C159.43,731.3379 159.43,747.4379 159.43,765.7479" fill="none" id="TaskLedger-backto-Source" style="stroke:#181818;stroke-width:1;"/><polygon fill="none" points="159.43,692.7279,155.43,698.7279,159.43,704.7279,163.43,698.7279,159.43,692.7279" style="stroke:#181818;stroke-width:1;stroke-linejoin:miter;stroke-miterlimit:10;"/><text fill="#000000" font-family="sans-serif" font-size="13" lengthAdjust="spacing" textLength="7.163" x="153.5282" y="754.3151">*</text></g><!--reverse link TaskLedger to SubagentResult--><g class="link" data-entity-1="ent0002" data-entity-2="ent0007" data-link-type="aggregation" data-source-line="66" id="lnk13"><path codeLine="66" d="M278,704.7279 C278,725.4279 278,735.0279 278,752.2179" fill="none" id="TaskLedger-backto-SubagentResult" style="stroke:#181818;stroke-width:1;"/><polygon fill="none" points="278,692.7279,274,698.7279,278,704.7279,282,698.7279,278,692.7279" style="stroke:#181818;stroke-width:1;stroke-linejoin:miter;stroke-miterlimit:10;"/><text fill="#000000" font-family="sans-serif" font-size="13" lengthAdjust="spacing" textLength="7.163" x="264.4637" y="740.477">*</text></g><!--reverse link Source to Origin--><g class="link" data-entity-1="ent0005" data-entity-2="ent0006" data-link-type="aggregation" data-source-line="67" id="lnk14"><path codeLine="67" d="M152.27,818.2779 C152.27,838.0779 152.27,856.4079 152.27,878.9879" fill="none" id="Source-backto-Origin" style="stroke:#181818;stroke-width:1;"/><polygon fill="none" points="152.27,806.2779,148.27,812.2779,152.27,818.2779,156.27,812.2779,152.27,806.2779" style="stroke:#181818;stroke-width:1;stroke-linejoin:miter;stroke-miterlimit:10;"/></g><!--link ExecutionResult to AgentExecutionContext--><g class="link" data-entity-1="ent0008" data-entity-2="ent0001" data-link-type="dependency" data-source-line="68" id="lnk15"><path codeLine="68" d="M470.27,152.5879 C470.27,170.2079 470.27,185.7379 470.27,206.7779" fill="none" id="ExecutionResult-to-AgentExecutionContext" style="stroke:#181818;stroke-width:1;stroke-dasharray:7,7;"/><polygon fill="#181818" points="470.27,211.7779,474.27,202.7779,470.27,206.7779,466.27,202.7779,470.27,211.7779" style="stroke:#181818;stroke-width:1;stroke-linejoin:miter;stroke-miterlimit:10;"/><text fill="#000000" font-family="sans-serif" font-size="13" lengthAdjust="spacing" textLength="91.4161" x="378.27" y="178.0749">projected from</text></g><g class="legend" data-source-line="7"><rect fill="#DDDDDD" height="67.2038" rx="7.5" ry="7.5" style="stroke:#000000;stroke-width:1;" width="348.2387" x="12" y="959.5558"/><ellipse cx="22.5" cy="976.1238" fill="#000000" rx="2.5" ry="2.5"/><text fill="#000000" font-family="sans-serif" font-size="14" lengthAdjust="spacing" textLength="96.0256" x="29" y="979.5218">-- owns / holds</text><text fill="#000000" font-family="sans-serif" font-size="14" lengthAdjust="spacing" textLength="80.5977" x="17" y="998.5897">..&gt; produces</text><text fill="#000000" font-family="sans-serif" font-size="14" lengthAdjust="spacing" textLength="338.2387" x="17" y="1017.6576">copy-on-write: every transition returns a NEW value</text></g><?plantuml-src VLNDRjf04BxxAKQz19AQt7Eeb12tYXGW0jge9sjP3sQBlUlk3mcgAlKX-eHzaiwkmLwIj3x0sZEpCz-FrrRO2c73j4HZHjf9Asg4Fxz-WwXhPzcAegOH4k423ALX0PQPBHZBB2Q9sGhPCCrgg2Z7xXi4fUr6HO66yIqhSM7tj9L6RfaiAqmsea30kh5xg94g2fCa5POe2wXmRHE0ypG5zIGDNC96LHG768q-GADLuJZwMwwQVQfa-gI5nIl07UezMCsa4LOeITsiqxG1Wsds23jMEKoeGTicINZ5Z85hkh7PCtBdQyPAMdosy8EsRwyq_UvG2pHfsZsxu4vhAikvajJKC5yw6FRnXXe8MUPMgIhdhAfC70ta3OO4ZA2pWbaMRYeiIjHn8j_p2dCZIia8ILj252fTOD4_ZlTEqnw_WS49GyCOmPEmcvpm2nf6sW4V0fo1a5nZJS0CKBuEi4XuPqZ05wK16VLsbJK37SsiLWRr3WiQzdYTmTeB28VqzmSC1Ze8CJUgQQXQEUlHiXNvYMurCgDar8OLEs4e81K1ExPnr3hLodlM8eacouXByYxH8ijB4itFuPTMERxnYz5ebFmyMc993hyFOaG-k51Qb48oZveSOUo9tbgLXCu4XLe60dcdihiLysRhQ8jZocaoTNwOpTFN1sjLYBKWoTUYyce7h6G1HqJrKtSUdXnC5G_VoMdWYcIsVII8Im-NQeloywdIdH-2dAH6KUGXdwQZlYXTtRTTU5T7FUzkxpEgcMVNYzdqRlg9rjVZ9IswZDdD8fj_QKFZsUJXFbjcjpxjPZQdLJI7oMd-shFVTcuHBm9fxHYpe4xKVfuzp6YlIJQPpR_wEQvzcyViXdxlfX-pUJOTPxJNOQk3DlCWJSmSLtLJuP61DIC9YdY83l_hqdMm2pcvSPPgmsiV_bMJjuQEpS4vOd4g_5ghsbl27qa3Rfz3sxSFB7zQzhxzJz8hc_mZLyMvGTiaUYzyzDtvkwC4RqLE64tQn11jfKfU4kSFzxT7kVA7_ZVwTD3NnrEI_0K0?></g></svg>